<?xml version="1.0" encoding="UTF-8"?>
<svg version="1.1" xmlns="http://www.w3.org/2000/svg" width="2048" height="2048">
<path d="M0 0 C675.84 0 1351.68 0 2048 0 C2048 675.84 2048 1351.68 2048 2048 C1372.16 2048 696.32 2048 0 2048 C0 1372.16 0 696.32 0 0 Z " fill="#FEFEFE" transform="translate(0,0)"/>
<path d="M0 0 C0.04579722 57.56456416 0.08103331 115.12912665 0.10213066 172.69370544 C0.10462521 179.49274376 0.10721834 186.29178205 0.10986328 193.09082031 C0.1101248 193.76738675 0.11038632 194.44395319 0.11065576 195.14102164 C0.11917018 217.04901218 0.1341866 238.95699237 0.15259444 260.86497664 C0.17202122 284.02785772 0.1839976 307.19073264 0.18817699 330.35362244 C0.19091853 344.22198348 0.19957147 358.09031479 0.21583293 371.95866668 C0.22642071 381.47413547 0.22959656 390.98958893 0.22700275 400.50506318 C0.22572426 405.99148763 0.22765728 411.47786018 0.23841095 416.96427536 C0.24820062 421.99582315 0.24859807 427.02728455 0.24179779 432.05883646 C0.2409583 433.87068558 0.24344666 435.68254027 0.24976636 437.49437857 C0.34179358 465.52836388 -4.52216697 492.98111883 -23 515 C-23.95519531 516.19882813 -23.95519531 516.19882813 -24.9296875 517.421875 C-38.02449167 533.17910823 -57.37484771 542.44798534 -77 547 C-77.67466309 547.16226074 -78.34932617 547.32452148 -79.04443359 547.49169922 C-103.18446039 553.11875863 -128.87455656 550.54561841 -152 542 C-152.6919043 541.74734375 -153.38380859 541.4946875 -154.09667969 541.234375 C-183.16776207 530.43692246 -208.50479288 509.80682169 -227.67480469 485.65039062 C-229.78855695 483.01793571 -231.95253021 480.42741058 -234.10888672 477.82983398 C-240.15364146 470.54142543 -246.02491705 463.15599544 -251.75830078 455.62109375 C-254.02225981 452.66539419 -256.32342542 449.73894538 -258.625 446.8125 C-259.09276855 446.21767822 -259.56053711 445.62285645 -260.04248047 445.01000977 C-262.61586048 441.74309794 -265.205741 438.49038486 -267.8125 435.25 C-272.15264662 429.84260421 -276.39676277 424.36136164 -280.64892578 418.88476562 C-285.63457942 412.46455442 -290.6490019 406.06764258 -295.67773438 399.68115234 C-297.02154921 397.97260195 -298.36270038 396.26199239 -299.703125 394.55078125 C-304.45621436 388.48570318 -309.23762823 382.445671 -314.0625 376.4375 C-318.17859516 371.31064191 -322.22229664 366.1361646 -326.21337891 360.91162109 C-329.89566435 356.10488428 -333.67533143 351.37946514 -337.46655273 346.65844727 C-342.23519719 340.7176732 -346.94338828 334.7308025 -351.64111328 328.73388672 C-353.92453303 325.82033173 -356.21250803 322.91035807 -358.5 320 C-359.41668823 318.83335027 -360.3333549 317.66668361 -361.25 316.5 C-361.70375 315.9225 -362.1575 315.345 -362.625 314.75 C-366.75 309.5 -366.75 309.5 -368.12475586 307.75024414 C-369.04215009 306.5826959 -369.95963067 305.41521551 -370.87719727 304.24780273 C-373.15844245 301.3451721 -375.43821214 298.44140726 -377.71484375 295.53515625 C-382.46441139 289.47559832 -387.24161532 283.44051733 -392.0625 277.4375 C-396.15799493 272.33774578 -400.17408499 267.18863969 -404.13867188 261.98632812 C-407.52634126 257.56458478 -411.03412838 253.24740848 -414.5625 248.9375 C-419.18289669 243.29191503 -423.63421722 237.56607494 -427.9765625 231.703125 C-430.44870863 228.40056685 -433.02635915 225.19406519 -435.6171875 221.984375 C-438.88453835 217.89215197 -442.09857434 213.75924533 -445.3125 209.625 C-445.92375732 208.83915527 -446.53501465 208.05331055 -447.16479492 207.24365234 C-450.4525972 203.01094307 -450.4525972 203.01094307 -452 201 C-452.84232178 200.01882202 -452.84232178 200.01882202 -453.70166016 199.01782227 C-455.27382287 196.57443663 -455.24792423 195.57952775 -454.84765625 192.73828125 C-454.73389648 191.88419678 -454.62013672 191.0301123 -454.50292969 190.15014648 C-454.35758789 189.21372314 -454.21224609 188.2772998 -454.0625 187.3125 C-453.91844727 186.31355713 -453.77439453 185.31461426 -453.62597656 184.28540039 C-449.94582067 159.58991207 -444.94948135 135.2410848 -439 111 C-435.26518666 112.76232312 -432.39623194 115.10320419 -429.3125 117.8125 C-422.8034174 123.42736958 -416.02516528 128.63420186 -409.17578125 133.82421875 C-405.4990314 136.61085214 -401.8665927 139.44846821 -398.25 142.3125 C-385.93030796 152.04085847 -373.43550928 161.55488185 -360.73583984 170.78173828 C-355.32204556 174.72926618 -350.00587286 178.80021961 -344.6875 182.875 C-335.96465439 189.5500302 -327.12772607 196.04029743 -318.19287109 202.42773438 C-315.98355207 204.01179299 -313.78168204 205.60567289 -311.58203125 207.203125 C-301.27112761 214.6889995 -290.86124369 222.02409128 -280.41210938 229.31542969 C-268.83436718 237.40109985 -257.35474994 245.60376569 -246 254 C-247.31997698 251.21171237 -248.79529493 248.75675769 -250.6171875 246.26953125 C-251.39473389 245.2019458 -251.39473389 245.2019458 -252.18798828 244.11279297 C-252.74470215 243.35369629 -253.30141602 242.59459961 -253.875 241.8125 C-255.05801269 240.18672233 -256.24028763 238.56040761 -257.421875 236.93359375 C-258.02064453 236.10972168 -258.61941406 235.28584961 -259.23632812 234.43701172 C-265.77146509 225.40687091 -272.14884335 216.26552323 -278.4375 207.0625 C-283.92303002 199.04214022 -289.60803736 191.17244728 -295.32080078 183.31298828 C-297.59777623 180.17660192 -299.86548922 177.03357264 -302.13305664 173.89038086 C-315.39008833 155.51477435 -328.77493887 137.23782818 -342.39892578 119.13232422 C-344.13367013 116.82197699 -345.86218089 114.50705328 -347.58984375 112.19140625 C-355.92916421 101.02278968 -364.40874029 89.97563877 -373 79 C-375.60641851 75.66841909 -378.21010564 72.33472476 -380.8125 69 C-381.41779541 68.22769043 -382.02309082 67.45538086 -382.64672852 66.65966797 C-383.48095337 65.59063232 -383.48095337 65.59063232 -384.33203125 64.5 C-384.82421143 63.8709375 -385.3163916 63.241875 -385.82348633 62.59375 C-387 61 -387 61 -388 59 C-378.02894867 56.07466035 -368.0198603 53.44418875 -357.875 51.1875 C-356.91650146 50.96876221 -355.95800293 50.75002441 -354.97045898 50.5246582 C-349.55623084 49.34765208 -344.52329245 48.25521946 -339 49 C-336.41796875 51.3515625 -336.41796875 51.3515625 -334.1875 54.625 C-333.33737407 55.82783952 -332.48575953 57.02962805 -331.6328125 58.23046875 C-331.20129883 58.8548584 -330.76978516 59.47924805 -330.32519531 60.12255859 C-328.18656505 63.15241614 -325.87302536 66.03796897 -323.5625 68.9375 C-322.63608201 70.11277962 -321.71030382 71.28856383 -320.78515625 72.46484375 C-320.32512207 73.04862793 -319.86508789 73.63241211 -319.39111328 74.23388672 C-317.09125755 77.15371058 -314.79589478 80.07706142 -312.5 83 C-312.04560547 83.57814453 -311.59121094 84.15628906 -311.12304688 84.75195312 C-308.84167751 87.65463159 -306.56185835 90.55850275 -304.28515625 93.46484375 C-299.59963894 99.44254019 -294.88570583 105.39447833 -290.125 111.3125 C-285.87075731 116.60258226 -281.72420273 121.96410194 -277.625 127.375 C-272.58528674 134.02153438 -267.35708799 140.4843803 -262.02661133 146.89916992 C-257.69599182 152.12147665 -253.52484353 157.43970051 -249.4140625 162.8359375 C-242.37460045 172.06241689 -235.11734272 181.10719848 -227.77734375 190.09545898 C-223.91995975 194.83260733 -220.16031352 199.63439012 -216.45458984 204.49072266 C-214.0273808 207.67055465 -211.56765661 210.81873216 -209.0625 213.9375 C-203.99396131 220.25367898 -199.00337059 226.6320738 -194 233 C-193.67 165.68 -193.34 98.36 -193 29 C-182.11 27.68 -171.22 26.36 -160 25 C-153.57307802 24.08255449 -147.15939382 23.14716187 -140.75 22.125 C-139.1208249 21.86943014 -137.49159119 21.61423367 -135.86230469 21.359375 C-131.71915079 20.70927258 -127.57731834 20.05118841 -123.43603516 19.38928223 C-121.03435387 19.0054898 -118.63243628 18.62320732 -116.23046875 18.24121094 C-98.78355381 15.46293112 -81.35849948 12.56966953 -63.94976807 9.56164551 C-53.35095763 7.73074315 -42.74438565 5.95764563 -32.125 4.25 C-30.89023926 4.05140381 -29.65547852 3.85280762 -28.38330078 3.64819336 C-26.05439645 3.27557505 -23.72514444 2.90512155 -21.39550781 2.53710938 C-19.06590396 2.16860718 -16.73716284 1.79462153 -14.40917969 1.41601562 C-13.26094727 1.23232422 -12.11271484 1.04863281 -10.9296875 0.859375 C-9.90858887 0.69405273 -8.88749023 0.52873047 -7.83544922 0.35839844 C-5.18191755 0.02299423 -2.66970991 -0.0257455 0 0 Z " fill="#FD9EAF" transform="translate(1523,1025)"/>
<path d="M0 0 C6.9552207 5.65037787 13.43385953 11.84803711 19.86499023 18.08032227 C20.39962891 18.59836426 20.93426758 19.11640625 21.48510742 19.65014648 C27.21651286 25.23323121 32.70269871 30.9656583 37.86499023 37.08032227 C39.1121582 38.52858398 39.1121582 38.52858398 40.38452148 40.00610352 C45.91048385 46.44357494 51.20328943 53.01496068 56.33764648 59.76782227 C58.95707152 63.2126577 61.62476994 66.61819539 64.30249023 70.01782227 C64.76010742 70.59910889 65.21772461 71.18039551 65.68920898 71.77929688 C66.61724266 72.95774976 67.54546573 74.13605352 68.47387695 75.31420898 C70.77373261 78.23403275 73.06914968 81.1573412 75.36499023 84.08032227 C76.28163533 85.24700588 77.19830201 86.41367254 78.11499023 87.58032227 C83.61499023 94.58032227 89.11499023 101.58032227 94.61499023 108.58032227 C95.06849854 109.1575 95.52200684 109.73467773 95.98925781 110.3293457 C96.90842336 111.49922242 97.82753119 112.6691445 98.74658203 113.83911133 C100.99955117 116.70703383 103.25342746 119.57423217 105.50952148 122.43969727 C113.60869256 132.73012834 121.64303695 143.07060559 129.67651367 153.41235352 C136.93851458 162.75987226 144.21587605 172.09452626 151.53833008 181.39477539 C154.27719332 184.87455305 157.01181553 188.35766539 159.74731445 191.84008789 C162.00006736 194.70766291 164.25367913 197.5745518 166.50952148 200.43969727 C172.25678292 207.74210002 177.97183749 215.06890674 183.67285156 222.4074707 C187.22337918 226.97583241 190.78567555 231.5344864 194.36499023 236.08032227 C199.15992494 242.17003163 203.91857723 248.28753144 208.67358398 254.40844727 C212.22389515 258.97646251 215.78598834 263.53475767 219.36499023 268.08032227 C225.29203201 275.60971064 231.17049833 283.17664375 237.04907227 290.74389648 C238.87056332 293.0874928 240.693678 295.42981654 242.51733398 297.77172852 C247.89488623 304.67805758 253.26965056 311.58651357 258.61499023 318.51782227 C259.39358398 319.5271582 260.17217773 320.53649414 260.97436523 321.57641602 C265.86949584 328.05942989 265.1974328 332.97026463 264.20092773 340.71313477 C263.88924368 342.87845683 263.56840227 345.04247411 263.23999023 347.20532227 C262.97593384 348.95921265 262.97593384 348.95921265 262.70654297 350.74853516 C259.50125954 371.40982224 255.23721123 391.87506633 249.86499023 412.08032227 C246.00271828 410.40229634 242.87825704 407.87687368 239.61499023 405.26782227 C238.70342163 404.54574585 238.70342163 404.54574585 237.7734375 403.80908203 C233.08499364 400.08395988 228.44259933 396.30283593 223.80249023 392.51782227 C217.55094556 387.41973475 211.23107541 382.43800226 204.80737305 377.55737305 C202.51913196 375.81732043 200.23503834 374.07188691 197.95092773 372.32641602 C175.88951439 355.47757014 153.63362204 338.91072099 131.10327148 322.69360352 C128.84432817 321.06542971 126.58856362 319.43294601 124.33374023 317.79907227 C110.10781617 307.49389561 95.74642874 297.38856063 81.35083008 287.32226562 C73.17085852 281.60043699 65.01512739 275.84453844 56.86499023 270.08032227 C65.75858779 283.55384394 75.02048702 296.77214164 84.35327148 309.94360352 C85.85033096 312.05960231 87.3428221 314.17874279 88.83374023 316.29907227 C95.55866142 325.85926985 102.36991848 335.35375055 109.22827148 344.81860352 C110.85008088 347.0597196 112.46764155 349.30383541 114.08374023 351.54907227 C121.34806108 361.63791641 128.69253824 371.66484218 136.08129883 381.6628418 C137.89475643 384.12066512 139.70286774 386.58233795 141.50952148 389.04516602 C147.7645714 397.56765045 154.07503541 406.03122951 160.55493164 414.38452148 C163.09067239 417.66690226 165.59972376 420.96974518 168.11499023 424.26782227 C172.74726051 430.33662608 177.41963355 436.37272693 182.11499023 442.39282227 C190.42882031 453.07137823 190.42882031 453.07137823 194.23999023 458.08032227 C194.94897461 459.00844727 195.65795898 459.93657227 196.38842773 460.89282227 C197.86499023 463.08032227 197.86499023 463.08032227 197.86499023 465.08032227 C157.70424538 474.98119489 157.70424538 474.98119489 148.86499023 474.08032227 C146.24780273 471.91235352 146.24780273 471.91235352 143.98999023 468.89282227 C143.57346191 468.35181885 143.15693359 467.81081543 142.7277832 467.25341797 C141.85381952 466.11313001 140.99080116 464.96437708 140.13842773 463.80786133 C138.13616307 461.09159892 136.05568137 458.43600665 133.98999023 455.76782227 C133.15899122 454.67818426 132.32826741 453.58833632 131.49780273 452.49829102 C128.67630213 448.81365508 125.77395744 445.19605048 122.86499023 441.58032227 C118.70447869 436.40497118 114.60936449 431.1871907 110.57495117 425.91308594 C107.61755781 422.0495651 104.62624755 418.2144885 101.61499023 414.39282227 C97.34391334 408.97157534 93.09865796 403.53083192 88.86499023 398.08032227 C83.33059042 390.95694878 77.77190808 383.85335464 72.19165039 376.76586914 C69.91412817 373.872234 67.63975016 370.97612904 65.36499023 368.08032227 C64.44833794 366.91364431 63.53167129 365.74697763 62.61499023 364.58032227 C60.7816569 362.24698893 58.94832357 359.9136556 57.11499023 357.58032227 C56.66148193 357.00314453 56.20797363 356.4259668 55.74072266 355.83129883 C54.82155711 354.66142211 53.90244928 353.49150003 52.98339844 352.3215332 C50.7304293 349.4536107 48.476553 346.58641236 46.22045898 343.72094727 C41.70042546 337.97762097 37.19591093 332.2229959 32.71606445 326.44824219 C27.2099297 319.35099533 21.67062115 312.28472104 16.03515625 305.28955078 C12.25511946 300.59330669 8.56826266 295.84167253 4.86499023 291.08032227 C4.36999023 392.06032227 4.36999023 392.06032227 3.86499023 495.08032227 C-8.01500977 496.40032227 -19.89500977 497.72032227 -32.13500977 499.08032227 C-41.33369725 500.46358354 -50.50953983 501.85687038 -59.68481445 503.36499023 C-64.11198566 504.08395997 -68.54567711 504.75826158 -72.97970581 505.43344116 C-88.55450544 507.80568853 -104.0966259 510.35628784 -119.63500977 512.95532227 C-120.95067862 513.17471242 -122.26636277 513.39401087 -123.58206177 513.61322021 C-140.62525063 516.45328489 -157.66079213 519.33055548 -174.65454102 522.45483398 C-175.86368164 522.67413574 -177.07282227 522.8934375 -178.31860352 523.11938477 C-179.33494873 523.30710449 -180.35129395 523.49482422 -181.3984375 523.68823242 C-184.02552594 524.06463567 -186.48659632 524.10818916 -189.13500977 524.08032227 C-189.18079897 467.6282614 -189.21603496 411.17620239 -189.23714042 354.7241266 C-189.2396418 348.05770221 -189.24222813 341.39127785 -189.24487305 334.72485352 C-189.24513456 334.06147914 -189.24539608 333.39810477 -189.24566553 332.71462815 C-189.25418176 311.22917422 -189.26919956 289.74373085 -189.28760421 268.25828332 C-189.30702555 245.54459811 -189.31900618 222.83091947 -189.32318676 200.11722624 C-189.32592939 186.51603149 -189.33458832 172.91486704 -189.3508427 159.31368162 C-189.36142392 149.98371254 -189.3646078 140.6537591 -189.36201252 131.32378446 C-189.36073301 125.94292128 -189.36267872 120.56211099 -189.37342072 115.18125725 C-189.38319595 110.24850277 -189.38361705 105.31583646 -189.37680756 100.38307782 C-189.37596668 98.6049114 -189.37846736 96.82673934 -189.38477613 95.04858391 C-189.50348336 59.50411683 -179.41305336 29.9161372 -154.48266602 4.36157227 C-112.54515885 -35.5437209 -44.70488113 -35.02958159 0 0 Z " fill="#FE9EAF" transform="translate(714.135009765625,498.919677734375)"/>
<path d="M0 0 C1.57524231 0.15183144 3.15032553 0.30531396 4.7253418 0.45947266 C6.04105415 0.58740707 6.04105415 0.58740707 7.38334656 0.71792603 C11.21752266 1.13124835 15.00931188 1.74306405 18.8125 2.375 C23.92222279 3.20659032 29.03127129 4.01739819 34.16015625 4.72265625 C35.03115967 4.8427002 35.90216309 4.96274414 36.79956055 5.08642578 C38.41629484 5.30681292 40.03357926 5.5232389 41.65161133 5.73388672 C47.57311396 6.54455049 53.42076148 7.6437691 59.28515625 8.78515625 C72.50808106 11.3478976 85.79464314 13.51008002 99.0871582 15.67712402 C102.35231956 16.21082516 105.6164777 16.75061621 108.88085938 17.2890625 C131.65992381 21.02975927 154.46412389 24.37311154 177.38305664 27.12109375 C178.90852355 27.3048669 180.43397782 27.48874495 181.95941925 27.67272949 C185.63946865 28.11635691 189.31968463 28.55858383 193 29 C193.09164008 84.07597581 193.16208164 139.15194388 193.20426132 194.22798099 C193.20926389 200.7364601 193.2144412 207.24493907 193.21972656 213.75341797 C193.2207758 215.04908919 193.22182505 216.3447604 193.22290608 217.67969438 C193.24029123 238.63391851 193.27181849 259.58809855 193.30861118 280.54229656 C193.34607324 302.05782649 193.36824698 323.5733334 193.37635398 345.08889461 C193.38183083 358.35537989 193.39910255 371.62174054 193.43166587 384.88818744 C193.45287877 393.99674922 193.45918475 403.10524697 193.45400551 412.21383163 C193.45145426 417.46183524 193.45524769 422.70962171 193.4768219 427.95758629 C193.49648411 432.77601479 193.49714438 437.59408295 193.48359558 442.41252908 C193.48192448 444.14235591 193.48683073 445.87220651 193.49953273 447.60198751 C193.68093859 473.86444053 187.18789378 497.69658169 170 518 C169.54238281 518.60328125 169.08476563 519.2065625 168.61328125 519.828125 C155.93746929 536.12015959 133.12215056 545.95296862 113.3125 549.3125 C83.54401077 552.76149257 56.64348626 546.2917632 33.03515625 527.66015625 C21.05299716 517.29130329 13.41108916 505.30075776 7 491 C6.57847656 490.113125 6.15695312 489.22625 5.72265625 488.3125 C-0.7870512 472.98398132 -0.44660809 454.35142028 -0.36076355 437.96694946 C-0.36207636 436.05880237 -0.36471146 434.15065583 -0.36853105 432.24251211 C-0.3751547 427.07022542 -0.36335722 421.89812948 -0.34819686 416.72586703 C-0.3351217 411.12156666 -0.33963399 405.51727522 -0.34190369 399.91296387 C-0.34346923 390.22668579 -0.33413565 380.5404688 -0.31719017 370.85420609 C-0.29270659 356.84987148 -0.28498537 342.84556612 -0.2812262 328.84121244 C-0.27467632 306.11466279 -0.25478106 283.38815119 -0.22631836 260.66162109 C-0.19871777 238.59782071 -0.17749017 216.53402905 -0.16479492 194.47021484 C-0.16440034 193.78883081 -0.16400576 193.10744678 -0.16359923 192.40541475 C-0.15964331 185.56200928 -0.15581592 178.71860375 -0.15208265 171.87519816 C-0.12081641 114.58344282 -0.06793005 57.29172292 0 0 Z " fill="#FE9EAF" transform="translate(525,1025)"/>
<path d="M0 0 C1.76605207 1.52325185 3.51687273 3.06438923 5.25 4.625 C6.01957031 5.30046875 6.78914063 5.9759375 7.58203125 6.671875 C23.00374542 21.04026719 30.95958051 40.39544142 35.25 60.625 C35.51617124 61.72526379 35.51617124 61.72526379 35.78771967 62.84775513 C36.3794161 66.40249405 36.38595078 69.89490863 36.37304783 73.4866991 C36.37420167 74.27587372 36.37535552 75.06504833 36.37654433 75.87813732 C36.37919921 78.53261496 36.37469808 81.1870324 36.37025452 83.84150696 C36.37069045 85.75972975 36.37156576 87.67795248 36.37284368 89.5961749 C36.37508432 94.87521597 36.37107321 100.15423684 36.36606562 105.43327534 C36.36175516 111.12308383 36.36320797 116.81289114 36.3639679 122.50270081 C36.36449275 132.36332279 36.36134995 142.22393817 36.35573006 152.08455849 C36.34760988 166.34143657 36.3449993 180.59831146 36.34374207 194.85519161 C36.34155236 217.98492456 36.33490306 241.11465376 36.32543945 264.24438477 C36.31625596 286.71541323 36.30917188 309.18644074 36.30493164 331.6574707 C36.30480011 332.35005502 36.30466859 333.04263933 36.30453308 333.75621104 C36.30321456 340.7113905 36.30193875 347.66656997 36.30069422 354.62174944 C36.2902521 412.95616864 36.27260487 471.29058428 36.25 529.625 C32.55571224 529.14805137 28.86167527 528.66918646 25.16767883 528.18998718 C24.12668171 528.05561359 23.0856846 527.92124 22.01314211 527.78279448 C15.03775531 526.87668048 8.0950745 525.86980951 1.16796875 524.64453125 C0.15960968 524.47065887 -0.84874939 524.2967865 -1.88766479 524.11764526 C-4.0188065 523.75000605 -6.1496257 523.38049249 -8.28012085 523.00912476 C-14.03112449 522.00759023 -19.78507419 521.02328207 -25.5390625 520.0390625 C-26.71476303 519.83780258 -27.89046356 519.63654266 -29.10179138 519.42918396 C-48.47117806 516.12474027 -67.88175864 513.07052864 -87.29138184 510.01306152 C-89.47482781 509.66843242 -91.65793676 509.32180349 -93.84082031 508.97363281 C-109.38494712 506.49608492 -124.96433233 504.33862578 -140.56958008 502.28637695 C-141.34700058 502.1833728 -142.12442108 502.08036865 -142.92539978 501.97424316 C-144.38970858 501.78037243 -145.85426649 501.58837066 -147.31910706 501.39855957 C-150.52542557 500.97297183 -153.62306954 500.44510093 -156.75 499.625 C-156.81870951 445.1349216 -156.87155082 390.6448476 -156.90319599 336.15473438 C-156.90694798 329.71749537 -156.91083096 323.28025645 -156.91479492 316.84301758 C-156.91558185 315.5615125 -156.91636878 314.28000743 -156.91717956 312.95966887 C-156.93022329 292.22652332 -156.95387144 271.49340281 -156.98145839 250.76027209 C-157.00954133 229.476408 -157.02618237 208.19255699 -157.03226548 186.90867513 C-157.03637592 173.7819327 -157.04934512 160.65526102 -157.0737494 147.52854037 C-157.08964225 138.5195235 -157.09439233 129.51054305 -157.09050413 120.50151319 C-157.08858812 115.30860037 -157.09146591 110.11581095 -157.10761642 104.92292023 C-157.12232573 100.15836013 -157.12288157 95.39400521 -157.11269668 90.62943523 C-157.11143982 88.91581559 -157.11515132 87.2021826 -157.12464955 85.48858882 C-157.2714558 57.34088003 -149.98409497 31.76861704 -130.75 10.625 C-130.13898438 9.93277344 -129.52796875 9.24054688 -128.8984375 8.52734375 C-95.73753315 -26.96187942 -37.61363006 -30.0386629 0 0 Z " fill="#FE9EAF" transform="translate(1486.75,493.375)"/>
<path d="M0 0 C0.33 0 0.66 0 1 0 C1.08975098 1.11592529 1.17950195 2.23185059 1.27197266 3.3815918 C3.59849678 32.08064181 6.55512707 60.67018249 9.88336182 89.26913452 C10.94408961 98.42081581 11.92733467 107.57965395 12.89599609 116.74145508 C17.97131948 164.72106117 23.73287576 212.9158608 34.1875 260.0625 C34.42203888 261.12757782 34.42203888 261.12757782 34.66131592 262.21417236 C37.54154679 275.16168102 41.16124606 287.93555034 46.125 300.25 C46.60195312 301.45140625 47.07890625 302.6528125 47.5703125 303.890625 C48.82027682 306.60912663 50.08991589 308.71694088 52 311 C54.43777704 309.02117438 56.87518688 307.04189699 59.3125 305.0625 C60.04581543 304.46711426 60.77913086 303.87172852 61.53466797 303.25830078 C65.57506779 299.97619568 69.60584637 296.68311895 73.625 293.375 C78.15976001 289.65676671 82.76771511 286.04075576 87.39160156 282.43481445 C92.12372394 278.72756009 96.75372248 274.9065531 101.375 271.0625 C107.5816872 265.90714961 113.91962863 260.98547192 120.40405273 256.18554688 C125.0662887 252.72749522 129.56698564 249.11750591 134.03125 245.40625 C137.77144678 242.37472209 141.60112847 239.47073072 145.4375 236.5625 C152.46337045 231.23258316 159.2923116 225.72544502 166 220 C166 223.5651868 165.54485685 223.82264534 163.1875 226.3125 C159.86920876 229.96462335 156.78191791 233.73615422 153.75 237.625 C153.04750122 238.52472534 153.04750122 238.52472534 152.33081055 239.44262695 C151.36642055 240.67905372 150.40263984 241.91595595 149.43945312 243.15332031 C147.13531853 246.10930303 144.81718438 249.05424416 142.5 252 C141.5832614 253.16661014 140.66659484 254.3332769 139.75 255.5 C137.91666667 257.83333333 136.08333333 260.16666667 134.25 262.5 C133.79633057 263.07741943 133.34266113 263.65483887 132.87524414 264.24975586 C131.95784991 265.4173041 131.04036933 266.58478449 130.12280273 267.75219727 C127.84155755 270.6548279 125.56178786 273.55859274 123.28515625 276.46484375 C118.0544629 283.13848699 112.7858698 289.779678 107.48071289 296.39428711 C103.6767969 301.1416578 99.91270997 305.91895176 96.16210938 310.70849609 C92.13505386 315.84430314 88.05977173 320.94081397 83.97070312 326.02734375 C83.04337229 327.18241798 82.11928194 328.34010505 81.19921875 329.50097656 C80.18676309 330.76654614 79.14353153 332.00740349 78.09375 333.2421875 C77.7328125 333.82226562 77.371875 334.40234375 77 335 C77.64844801 338.02971795 77.64844801 338.02971795 79.63208008 338.97973633 C80.33743896 339.26099365 81.04279785 339.54225098 81.76953125 339.83203125 C82.57841797 340.15623047 83.38730469 340.48042969 84.22070312 340.81445312 C85.50364258 341.30848633 85.50364258 341.30848633 86.8125 341.8125 C87.59431641 342.13025391 88.37613281 342.44800781 89.18164062 342.77539062 C105.40872605 349.1633152 122.22047493 353.19101017 139.3125 356.4375 C140.29221771 356.62631744 141.27193542 356.81513489 142.28134155 357.00967407 C193.62180053 366.87628993 245.65845147 372.52962711 297.59745789 378.18920898 C302.83855882 378.76089384 308.0781448 379.34428065 313.31640625 379.94140625 C323.01449884 381.04394382 332.66920452 382.0983902 342.4140625 382.6875 C348.27958439 383.19865659 354.09916477 384.05271057 359.92504883 384.89648438 C366.27056064 385.80736211 372.61092934 386.47649499 379 387 C378.67 387.66 378.34 388.32 378 389 C376.12336731 389.40341187 376.12336731 389.40341187 373.62426758 389.62255859 C372.68442017 389.70976166 371.74457275 389.79696472 370.77624512 389.8868103 C369.74277954 389.97314728 368.70931396 390.05948425 367.64453125 390.1484375 C366.57295776 390.24565094 365.50138428 390.34286438 364.39733887 390.44302368 C362.08138466 390.65224328 359.76504799 390.85726164 357.44839478 391.05859375 C352.56629109 391.48344876 347.68621441 391.92960793 342.80595398 392.37506104 C340.34666156 392.5994644 337.88727969 392.82288959 335.42781067 393.04534912 C204.9049093 399.71053179 204.9049093 399.71053179 81.60546875 435.7265625 C79 437 79 437 76 437 C78.88293825 442.38984107 82.20716356 446.94653051 86.125 451.625 C87.29432881 453.04184738 88.46228305 454.45983025 89.62890625 455.87890625 C90.2027002 456.5764502 90.77649414 457.27399414 91.36767578 457.99267578 C94.49178914 461.83450349 97.46994725 465.78555482 100.47265625 469.72265625 C103.2601463 473.35933011 106.12845751 476.92956838 109 480.5 C114.43243862 487.2596576 119.73613734 494.1086629 125 501 C133.94217276 512.67935437 142.99704101 524.26482546 152.1875 535.75 C152.68926758 536.37737061 153.19103516 537.00474121 153.70800781 537.65112305 C155.95021618 540.45166935 158.19969443 543.24526653 160.46484375 546.02734375 C161.17769531 546.90519531 161.89054687 547.78304687 162.625 548.6875 C163.23601563 549.43386719 163.84703125 550.18023438 164.4765625 550.94921875 C165.92880158 552.90415598 166.94372024 554.81476068 168 557 C144.49951408 539.40112216 144.49951408 539.40112216 134.94775391 531.16088867 C130.65000386 527.48230601 126.19772126 524.03841514 121.6875 520.625 C113.29713681 514.27502488 105.12910468 507.67958853 97 501 C95.16688802 499.49972949 93.33357717 497.99970193 91.5 496.5 C90.64019531 495.79617188 89.78039063 495.09234375 88.89453125 494.3671875 C80.09635119 487.17191474 71.29505798 479.98161431 62.375 472.9375 C61.81965576 472.49680176 61.26431152 472.05610352 60.69213867 471.60205078 C57.23007033 468.88144076 53.68775128 466.39759205 50 464 C49.73574219 464.82242187 49.47148438 465.64484375 49.19921875 466.4921875 C48.35766916 468.95378858 47.48277292 471.34635738 46.51953125 473.7578125 C33.65616323 506.3503191 28.40549731 541.970802 23.36486816 576.50415039 C23.09908051 578.32224821 22.83150458 580.14008488 22.56286621 581.95776367 C19.89790986 600.02228769 17.58651601 618.11010314 15.5 636.25 C15.34837402 637.55946594 15.19674805 638.86893188 15.04052734 640.21807861 C12.81075546 659.47749775 10.72610965 678.74526288 8.86993408 698.04418945 C8.00289185 707.03425298 7.10317018 716.02100589 6.203125 725.0078125 C6.12327866 725.8051115 6.04343231 726.60241051 5.96116638 727.42387009 C5.55421074 731.48680184 5.14702816 735.54971082 4.73974609 739.61260986 C4.02773933 746.71638474 3.31766255 753.82035258 2.6075058 760.92431259 C2.26478209 764.35254429 1.92193716 767.78076386 1.57910156 771.20898438 C1.46681213 772.33187866 1.35452271 773.45477295 1.23883057 774.61169434 C1.16001648 775.39983521 1.08120239 776.18797607 1 777 C-1.57030075 774.42969925 -1.36162994 773.2198661 -1.63183594 769.6315918 C-1.77640228 767.86136406 -1.77640228 767.86136406 -1.92388916 766.05537415 C-1.97360115 765.40410364 -2.02331314 764.75283314 -2.07453156 764.08182716 C-2.36240077 760.35367627 -2.68825702 756.62884219 -3.01367188 752.90380859 C-3.12341276 751.64364976 -3.12341276 751.64364976 -3.23537064 750.35803318 C-4.29218985 738.43724889 -5.60104443 726.54194206 -6.890625 714.64453125 C-7.02435013 713.41048428 -7.15807526 712.1764373 -7.29585266 710.90499496 C-7.99295593 704.48118048 -8.69336439 698.05773348 -9.39599609 691.63452148 C-9.96204825 686.45785066 -10.52421677 681.28078376 -11.08251953 676.10327148 C-14.04941465 648.59533282 -17.13833862 621.10954307 -20.671875 593.66796875 C-20.81082436 592.57924784 -20.94977371 591.49052692 -21.09293365 590.36881447 C-29.048748 527.52274224 -29.048748 527.52274224 -49.24145508 467.85864258 C-50 466 -50 466 -50 464 C-54.79035321 466.61461774 -58.77773741 470.00789993 -62.9375 473.5 C-68.23596482 477.90857699 -73.55705094 482.27092318 -79 486.5 C-84.24150207 490.5786598 -89.38518131 494.76367415 -94.5 499 C-100.19144463 503.71303848 -105.93324647 508.34453001 -111.76171875 512.88671875 C-116.2208958 516.36854193 -120.61724641 519.92259508 -125 523.5 C-131.6895739 528.95679819 -138.4471804 534.31811141 -145.25146484 539.63085938 C-147.08465828 541.06628926 -148.91207513 542.50881791 -150.73828125 543.953125 C-151.35751465 544.44216309 -151.97674805 544.93120117 -152.61474609 545.43505859 C-153.78395255 546.35870977 -154.95232275 547.28342107 -156.11962891 548.20947266 C-159.99552258 551.26620417 -163.96629112 554.15447591 -168 557 C-166.36827358 553.14654439 -163.78487823 550.23999268 -161.0625 547.125 C-155.63953601 540.81883172 -150.48246932 534.33652447 -145.37939453 527.77050781 C-143.53686586 525.40554889 -141.68050666 523.05162211 -139.82446289 520.69726562 C-135.86891854 515.67850771 -131.94520982 510.63780074 -128.0625 505.5625 C-124.49982119 500.90682302 -120.86423455 496.31603575 -117.1875 491.75 C-112.89344529 486.41697195 -108.70056603 481.01733645 -104.5625 475.5625 C-100.21026293 469.82534134 -95.7555057 464.19180008 -91.1875 458.625 C-82.0146764 449.06185824 -82.0146764 449.06185824 -77 438 C-145.8700814 406.7759438 -231.25121896 404.53798229 -305.5 396.375 C-306.18006985 396.30019157 -306.86013969 396.22538315 -307.56081772 396.1483078 C-321.82159535 394.58126861 -336.08412909 393.04974153 -350.37109375 391.73828125 C-351.3779422 391.64550903 -352.38479065 391.55273682 -353.42214966 391.45715332 C-358.02499551 391.03591233 -362.62846681 390.62801587 -367.234375 390.24169922 C-368.81120675 390.10263919 -370.38803026 389.96348567 -371.96484375 389.82421875 C-372.6749913 389.76929764 -373.38513885 389.71437653 -374.11680603 389.65779114 C-375.75255494 389.50976629 -377.37911385 389.2651677 -379 389 C-379.33 388.34 -379.66 387.68 -380 387 C-379.36743286 386.93815521 -378.73486572 386.87631042 -378.08312988 386.81259155 C-348.93610981 383.95735337 -319.82536132 380.99368571 -290.77612305 377.25585938 C-288.83514609 377.00633619 -286.89414665 376.75698776 -284.953125 376.5078125 C-283.99227493 376.38444519 -283.03142487 376.26107788 -282.04145813 376.13397217 C-271.11042933 374.74175275 -260.16205085 373.50391034 -249.21316528 372.26156616 C-162.69496284 363.833587 -162.69496284 363.833587 -80.1171875 338.84765625 C-78 338 -78 338 -76 338 C-78.53779069 333.40191235 -81.72563083 329.52550618 -85.0625 325.5 C-90.37492216 319.02675066 -95.53283034 312.46642674 -100.61328125 305.80908203 C-103.3698984 302.21286142 -106.1548752 298.63860911 -108.9375 295.0625 C-109.53812256 294.2905127 -110.13874512 293.51852539 -110.75756836 292.72314453 C-114.76238784 287.57990748 -118.78368597 282.44993548 -122.81616211 277.32836914 C-127.16718402 271.79783901 -131.48317907 266.24025331 -135.79980469 260.68286133 C-139.43462131 256.00560484 -143.08438294 251.34064572 -146.75 246.6875 C-153.94766539 237.54547898 -161.04788625 228.33046846 -168 219 C-165.10360233 220.32171859 -162.95674683 221.77984286 -160.625 223.9375 C-155.24477934 228.74980848 -149.53986508 233.12886878 -143.84667969 237.56054688 C-140.89069729 239.86468123 -137.94571269 242.18276122 -135 244.5 C-131.5135572 247.24063283 -128.02621825 249.98009645 -124.53515625 252.71484375 C-117.86439892 257.94327517 -111.22547284 263.20885281 -104.61450195 268.51269531 C-100.34786181 271.93221264 -96.0563304 275.31815138 -91.75 278.6875 C-86.7297224 282.61689688 -81.77976838 286.6215518 -76.859375 290.67578125 C-72.92737449 293.87187456 -68.93310042 296.98610416 -64.93652344 300.10083008 C-61.80028586 302.55369707 -58.73530891 305.05047713 -55.75 307.6875 C-53.3437244 310.21453331 -53.3437244 310.21453331 -51 310 C-24.02378269 254.99530159 -20.40948329 185.67836788 -13.78471375 125.69885254 C-13.27252642 121.12861894 -12.67477813 116.57392824 -12.05419922 112.01708984 C-10.93672169 103.69473969 -10.01497552 95.35712852 -9.125 87.0078125 C-8.95336082 85.40761545 -8.78164683 83.80742643 -8.60986328 82.20724487 C-8.25222443 78.87105404 -7.89611702 75.53470401 -7.54101562 72.19824219 C-7.18275892 68.83371978 -6.82207542 65.46947286 -6.45898438 62.10546875 C-3.71530442 36.73158052 -3.71530442 36.73158052 -1.59521484 11.29934692 C-1.49587646 9.92309647 -1.49587646 9.92309647 -1.39453125 8.51904297 C-1.34143799 7.7352829 -1.28834473 6.95152283 -1.23364258 6.14401245 C-1.00223791 4.02053612 -0.56911436 2.05638964 0 0 Z " fill="#FC9DAE" transform="translate(1024,636)"/>
<path d="M0 0 C0.66 0 1.32 0 2 0 C2.08451416 1.00111816 2.16902832 2.00223633 2.25610352 3.03369141 C5.83853119 88.47751162 5.83853119 88.47751162 41.3359375 162.01171875 C50.78984923 169.06749745 61.7669597 173.60747105 73 177 C73.71865234 177.22365234 74.43730469 177.44730469 75.17773438 177.67773438 C112.98919627 189.20754523 153.85565317 192.45505854 193 197 C189.96068166 198.71640254 187.41840935 199.37453179 183.96069336 199.77441406 C182.95158905 199.89526871 181.94248474 200.01612335 180.90280151 200.14064026 C179.80952545 200.26438522 178.71624939 200.38813019 177.58984375 200.515625 C175.22987233 200.79689468 172.86992876 201.07839816 170.51000977 201.36010742 C169.27292267 201.50515717 168.03583557 201.65020691 166.76126099 201.7996521 C148.80818909 203.91409604 130.87506171 206.08501023 113.0625 209.1875 C112.39685028 209.30170288 111.73120056 209.41590576 111.04537964 209.53356934 C83.48260313 214.30033427 51.54836018 220.06369689 33.375 243.3125 C25.63636355 255.21110768 21.696616 269.18594993 18.25 282.8125 C17.84587891 284.40843994 17.84587891 284.40843994 17.43359375 286.03662109 C12.68864095 305.75563986 10.06720024 325.92141608 7.375 346 C7.07330668 348.22531333 6.77122435 350.45057395 6.46875 352.67578125 C4.96147859 363.78147077 3.47456927 374.88992218 2 386 C1.34 386 0.68 386 0 386 C-0.79876342 380.31331605 -1.59606673 374.62642976 -2.39208984 368.93936157 C-2.67251799 366.93701584 -2.95328009 364.93471684 -3.234375 362.9324646 C-6.01891851 343.09198777 -6.01891851 343.09198777 -7.18969727 333.37426758 C-12.80211018 279.36920391 -12.80211018 279.36920391 -39 234 C-75.69377916 206.57984366 -135.74610677 203.98074895 -179.83691406 200.24169922 C-180.64399811 200.17065475 -181.45108215 200.09961029 -182.28262329 200.02641296 C-183.78711014 199.89523292 -185.29230823 199.77188429 -186.79818726 199.65779114 C-191.77667747 199.22332253 -191.77667747 199.22332253 -194 197 C-192.93716797 196.87995605 -191.87433594 196.75991211 -190.77929688 196.63623047 C-106.85319706 192.35674879 -106.85319706 192.35674879 -35 157.74609375 C-17.51352104 135.52369341 -13.52885785 104.07705874 -9 77 C-8.878526 76.27874939 -8.757052 75.55749878 -8.63189697 74.81439209 C-6.64352538 62.91984714 -5.06245644 50.99976418 -3.69238281 39.01904297 C-3.37353996 36.23726169 -3.04652724 33.45652243 -2.71875 30.67578125 C-1.52933187 20.45886273 -0.54827813 10.27279231 0 0 Z " fill="#FEFCFC" transform="translate(1023,826)"/>
<path d="M0 0 C0.33 0 0.66 0 1 0 C1 149.49 1 298.98 1 453 C11.56 451.02 22.12 449.04 33 447 C36.63 446.67 40.26 446.34 44 446 C47.3488788 445.37487596 50.66929935 444.70788733 54 444 C70.71321384 440.55606503 70.71321384 440.55606503 79 441 C79 441.33 79 441.66 79 442 C77.93604004 442.18062988 76.87208008 442.36125977 75.77587891 442.54736328 C71.65555263 443.24721115 67.53543548 443.94828317 63.41540527 444.64987183 C61.55841977 444.96606465 59.70140489 445.28208496 57.84436035 445.59793091 C47.85105992 447.29843858 37.86083316 449.01255334 27.8828125 450.80078125 C27.10060333 450.94062439 26.31839417 451.08046753 25.51248169 451.22454834 C21.82448233 451.88441849 18.13744279 452.54905125 14.45166016 453.22119141 C13.12925988 453.45881531 11.80683302 453.69629141 10.484375 453.93359375 C9.34709961 454.14040771 8.20982422 454.34722168 7.03808594 454.56030273 C4.29452911 454.95737328 1.76351634 455.03287467 -1 455 C-1.02288509 398.47984876 -1.04050776 341.95969798 -1.05106533 285.43954302 C-1.05231605 278.76796357 -1.05360921 272.09638412 -1.05493164 265.42480469 C-1.0550624 264.76090728 -1.05519316 264.09700987 -1.05532788 263.41299436 C-1.05958816 241.89958556 -1.06709868 220.38617938 -1.07629722 198.87277217 C-1.08600144 176.13536493 -1.09199679 153.39795925 -1.09408849 130.66055 C-1.09546112 117.04092787 -1.09979767 103.42131329 -1.10791647 89.80169348 C-1.11319932 80.46428038 -1.11480078 71.12687117 -1.11350138 61.78945668 C-1.11286042 56.40100363 -1.11384828 51.01256379 -1.11920547 45.62411308 C-1.124076 40.6891217 -1.12431462 35.75415237 -1.12089889 30.81915997 C-1.1204768 29.03568251 -1.12174165 27.25220366 -1.12488318 25.46872891 C-1.13906084 16.9215927 -1.08138329 8.49538188 0 0 Z " fill="#EBADB9" transform="translate(526,568)"/>
<path d="M0 0 C0.04579722 57.56456416 0.08103331 115.12912665 0.10213066 172.69370544 C0.10462521 179.49274376 0.10721834 186.29178205 0.10986328 193.09082031 C0.1101248 193.76738675 0.11038632 194.44395319 0.11065576 195.14102164 C0.11917018 217.04901218 0.1341866 238.95699237 0.15259444 260.86497664 C0.17202122 284.02785772 0.1839976 307.19073264 0.18817699 330.35362244 C0.19091853 344.22198348 0.19957147 358.09031479 0.21583293 371.95866668 C0.22642071 381.47413547 0.22959656 390.98958893 0.22700275 400.50506318 C0.22572426 405.99148763 0.22765728 411.47786018 0.23841095 416.96427536 C0.24820062 421.99582315 0.24859807 427.02728455 0.24179779 432.05883646 C0.2409583 433.87068558 0.24344666 435.68254027 0.24976636 437.49437857 C0.29599704 451.57749732 -0.10547057 465.6709928 -4.5 479.1875 C-4.71269531 479.88423828 -4.92539063 480.58097656 -5.14453125 481.29882812 C-6.27070199 484.9364287 -7.52727583 488.48864376 -9 492 C-10.27810154 488.10792205 -9.36638664 485.97831422 -7.83902791 482.21380231 C-2.78580634 468.88071359 -2.41488666 454.27161284 -2.48101807 440.2074585 C-2.47512503 438.30103287 -2.46748882 436.394612 -2.458287 434.48819947 C-2.43823365 429.31138022 -2.44252587 424.13483823 -2.45119452 418.95799828 C-2.45617579 413.35226822 -2.43800957 407.74660462 -2.42277527 402.14089966 C-2.39954822 392.44913916 -2.39071094 382.7574533 -2.39188385 373.0656662 C-2.39355847 359.05330114 -2.37316372 345.04103512 -2.34752855 331.02869657 C-2.30652145 308.28996487 -2.28311921 285.5512608 -2.27099609 262.8125 C-2.25918324 240.7350086 -2.23897747 218.65755066 -2.20751953 196.58007812 C-2.2060676 195.5576075 -2.2060676 195.5576075 -2.20458635 194.5144809 C-2.19485575 187.6685159 -2.18495571 180.82255116 -2.17493158 173.97658659 C-2.09100921 116.65107465 -2.03559826 59.32556124 -2 2 C-4.31 2 -6.62 2 -9 2 C-5.83390538 0.12379578 -3.64167599 -0.09662822 0 0 Z " fill="#EAAAB6" transform="translate(1523,1025)"/>
<path d="M0 0 C1.56426764 0.15024173 3.12836142 0.30229418 4.69238281 0.45507812 C5.99891815 0.58178894 5.99891815 0.58178894 7.33184814 0.71105957 C11.49508678 1.16190646 15.61839238 1.82367525 19.75 2.5 C20.96623047 2.69529297 20.96623047 2.69529297 22.20703125 2.89453125 C26.47385518 3.58138583 30.73778979 4.28504861 35 5 C35 5.33 35 5.66 35 6 C24 6 24 6 2 2 C2 155.78 2 309.56 2 468 C1.67 468 1.34 468 1 468 C-0.2219522 458.47683846 -0.13664399 448.99106625 -0.12025452 439.41000366 C-0.12069095 437.5122144 -0.12156717 435.61442519 -0.12284368 433.7166363 C-0.12507454 428.51730126 -0.12108665 423.3179869 -0.11606562 418.11865449 C-0.11174106 412.50596255 -0.11320897 406.89327175 -0.1139679 401.28057861 C-0.11449186 391.56137186 -0.11135837 381.84217183 -0.10573006 372.12296677 C-0.09759779 358.0706832 -0.09499806 344.01840288 -0.09374207 329.96611722 C-0.09155426 307.16637415 -0.08491014 284.36663546 -0.07543945 261.56689453 C-0.06625103 239.42106139 -0.05916937 217.2752292 -0.05493164 195.12939453 C-0.05480011 194.44643219 -0.05466859 193.76346984 -0.05453308 193.05981166 C-0.05321453 186.2010507 -0.05193872 179.34228974 -0.05069422 172.48352876 C-0.04025803 114.9890167 -0.02261623 57.49450849 0 0 Z " fill="#EAACB8" transform="translate(525,1025)"/>
<path d="M0 0 C0.33 0 0.66 0 1 0 C2.05313825 4.29684898 2.1388421 8.46505125 2.12304783 12.8616991 C2.12420167 13.65087372 2.12535552 14.44004833 2.12654433 15.25313732 C2.12919921 17.90761496 2.12469808 20.5620324 2.12025452 23.21650696 C2.12069045 25.13472975 2.12156576 27.05295248 2.12284368 28.9711749 C2.12508432 34.25021597 2.12107321 39.52923684 2.11606562 44.80827534 C2.11175516 50.49808383 2.11320797 56.18789114 2.1139679 61.87770081 C2.11449275 71.73832279 2.11134995 81.59893817 2.10573006 91.45955849 C2.09760988 105.71643657 2.0949993 119.97331146 2.09374207 134.23019161 C2.09155236 157.35992456 2.08490306 180.48965376 2.07543945 203.61938477 C2.06625596 226.09041323 2.05917188 248.56144074 2.05493164 271.0324707 C2.05480011 271.72505502 2.05466859 272.41763933 2.05453308 273.13121104 C2.05321456 280.0863905 2.05193875 287.04156997 2.05069422 293.99674944 C2.0402521 352.33116866 2.02252974 410.66558424 2 469 C-3.61 468.34 -9.22 467.68 -15 467 C-15 466.67 -15 466.34 -15 466 C-13.43759968 465.97269592 -11.8750573 465.95346774 -10.3125 465.9375 C-9.44238281 465.92589844 -8.57226562 465.91429687 -7.67578125 465.90234375 C-5 466 -5 466 0 467 C0 312.89 0 158.78 0 0 Z " fill="#E9A9B5" transform="translate(1521,554)"/>
<path d="M0 0 C0 4.24645065 -1.81750806 6.38524772 -4 10 C-4.66 10 -5.32 10 -6 10 C-6.433125 11.11375 -6.433125 11.11375 -6.875 12.25 C-7.82302644 14.56739797 -8.84845911 16.77917115 -10 19 C-10.66 19 -11.32 19 -12 19 C-12.11601563 19.69867187 -12.23203125 20.39734375 -12.3515625 21.1171875 C-13.06558408 24.29157261 -14.1528257 27.11030339 -15.375 30.125 C-21.98992381 47.14842064 -23.30829138 63.91376003 -23.24050903 81.98278809 C-23.24138333 83.74138816 -23.2431384 85.49998797 -23.24568737 87.25858641 C-23.25012097 92.04533664 -23.24221269 96.83199593 -23.23213124 101.6187346 C-23.22344098 106.79777901 -23.22642082 111.97681887 -23.22793579 117.15586853 C-23.22898114 126.11377666 -23.22274131 135.07165551 -23.21146011 144.02955627 C-23.19516036 156.98094697 -23.18999254 169.9323236 -23.18748413 182.88372344 C-23.18311403 203.89986661 -23.16982357 224.91599419 -23.15087891 245.93212891 C-23.13250234 266.33935468 -23.11835454 286.74657621 -23.10986328 307.15380859 C-23.10933783 308.41310415 -23.10881239 309.6723997 -23.10827102 310.96985573 C-23.10566082 317.28778769 -23.10313343 323.60571968 -23.10064721 329.9236517 C-23.07993606 382.28244533 -23.04457987 434.64122166 -23 487 C-17.39 487.33 -11.78 487.66 -6 488 C-5.67 488.66 -5.34 489.32 -5 490 C-7.58366245 489.85879984 -10.16682885 489.71221667 -12.75 489.5625 C-13.84441406 489.50352539 -13.84441406 489.50352539 -14.9609375 489.44335938 C-18.4272973 489.23852902 -21.65333026 488.9147998 -25 488 C-25.06870951 433.5099216 -25.12155082 379.0198476 -25.15319599 324.52973438 C-25.15694798 318.09249537 -25.16083096 311.65525645 -25.16479492 305.21801758 C-25.16558185 303.9365125 -25.16636878 302.65500743 -25.16717956 301.33466887 C-25.18022329 280.60152332 -25.20387144 259.86840281 -25.23145839 239.13527209 C-25.25954133 217.851408 -25.27618237 196.56755699 -25.28226548 175.28367513 C-25.28637592 162.1569327 -25.29934512 149.03026102 -25.3237494 135.90354037 C-25.33964225 126.8945235 -25.34439233 117.88554305 -25.34050413 108.87651319 C-25.33858812 103.68360037 -25.34146591 98.49081095 -25.35761642 93.29792023 C-25.37232573 88.53336013 -25.37288157 83.76900521 -25.36269668 79.00443523 C-25.36143982 77.29081559 -25.36515132 75.5771826 -25.37464955 73.86358882 C-25.51843594 46.29488896 -18.50678273 20.97771558 0 0 Z " fill="#ECABB6" transform="translate(1355,505)"/>
<path d="M0 0 C1.32 0.99 2.64 1.98 4 3 C3.67 3.66 3.34 4.32 3 5 C2.34 4.67 1.68 4.34 1 4 C1 70.33 1 136.66 1 205 C0.67 205 0.34 205 0 205 C0 137.35 0 69.7 0 0 Z " fill="#FEE4EA" transform="translate(718,789)"/>
<path d="M0 0 C0.71430176 0.05534912 1.42860352 0.11069824 2.16455078 0.16772461 C4.28709013 0.3320359 6.40965051 0.49607558 8.53222656 0.65991211 C10.94309126 0.84618237 13.35389803 1.03320369 15.76464844 1.22094727 C22.91426529 1.78173911 22.91426529 1.78173911 30.0703125 2.25 C38.0864957 2.72269876 45.98163978 3.74642248 53.92480469 4.89624023 C60.27034489 5.807617 66.61084063 6.47648773 73 7 C72.67 7.66 72.34 8.32 72 9 C69.94168091 9.42359924 69.94168091 9.42359924 67.19580078 9.67016602 C66.17028107 9.76689102 65.14476135 9.86361603 64.08816528 9.96327209 C62.40870316 10.107136 62.40870316 10.107136 60.6953125 10.25390625 C59.54642548 10.35968491 58.39753845 10.46546356 57.21383667 10.57444763 C53.51829838 10.91263142 49.82173763 11.23771519 46.125 11.5625 C43.66919269 11.78494631 41.21346227 12.00824313 38.7578125 12.23242188 C33.18380324 12.7395329 27.60901662 13.23715734 22.03375244 13.73025513 C17.35517441 14.146249 12.67753685 14.57247772 8 15 C8 14.34 8 13.68 8 13 C16.93014392 11.69531231 25.74239631 10.72109955 34.7578125 10.24609375 C37.87784653 10.07739962 37.87784653 10.07739962 40.41015625 9.5078125 C44.02754302 8.79852098 47.63647541 8.63789097 51.3125 8.4375 C52.42334961 8.37272461 52.42334961 8.37272461 53.55664062 8.30664062 C55.37091464 8.20129568 57.1854355 8.10021684 59 8 C58.02417969 7.93941406 57.04835938 7.87882813 56.04296875 7.81640625 C54.77066406 7.73261719 53.49835938 7.64882813 52.1875 7.5625 C50.92292969 7.48128906 49.65835937 7.40007813 48.35546875 7.31640625 C45 7 45 7 42 6 C39.73125801 5.84151091 37.45964657 5.72328028 35.1875 5.625 C28.16376259 5.25363188 21.22099939 4.49104609 14.25 3.5625 C13.29762451 3.4402002 12.34524902 3.31790039 11.36401367 3.19189453 C10.01593628 3.00602783 10.01593628 3.00602783 8.640625 2.81640625 C7.84172852 2.70756104 7.04283203 2.59871582 6.21972656 2.48657227 C3.89225473 1.97638184 2.07652966 1.15240874 0 0 Z " fill="#EBAFBB" transform="translate(1330,1016)"/>
<path d="M0 0 C0.33 0 0.66 0 1 0 C1.23399889 7.47496453 0.94534444 14.70672061 0.0625 22.125 C-0.02435059 22.85904053 -0.11120117 23.59308105 -0.20068359 24.34936523 C-0.58112895 27.36796358 -1.03526411 30.10579234 -2 33 C-2.27110761 36.22316824 -2.44479501 39.4461383 -2.62109375 42.67578125 C-3.00302326 46.02652361 -3.82265667 48.84929579 -5 52 C-5.66 52 -6.32 52 -7 52 C-7 51.01 -7 50.02 -7 49 C-7.66 49 -8.32 49 -9 49 C-9 42.73 -9 36.46 -9 30 C-9.66 30 -10.32 30 -11 30 C-11 25.05 -11 20.1 -11 15 C-10.67 15 -10.34 15 -10 15 C-9.4935767 18.70748547 -8.99600845 22.41610799 -8.5 26.125 C-8.35691406 27.17171875 -8.21382812 28.2184375 -8.06640625 29.296875 C-7.41114246 34.22695492 -6.79292599 39.01296747 -7 44 C-6.34 44 -5.68 44 -5 44 C-4.97421875 43.25363281 -4.9484375 42.50726562 -4.921875 41.73828125 C-4.21888154 27.7263434 -2.01043953 13.87189305 0 0 Z " fill="#EFB3BF" transform="translate(1030,1168)"/>
<path d="M0 0 C1.32 0.33 2.64 0.66 4 1 C-21.49111188 14.49923533 -47.60090907 20.22885951 -76 13 C-76 12.67 -76 12.34 -76 12 C-74.54176788 11.9729957 -73.08339325 11.95360213 -71.625 11.9375 C-70.81289063 11.92589844 -70.00078125 11.91429687 -69.1640625 11.90234375 C-67 12 -67 12 -65 13 C-60.40140906 13.27619165 -55.79341614 13.23183966 -51.1875 13.25 C-49.92228516 13.270625 -48.65707031 13.29125 -47.35351562 13.3125 C-33.23724638 13.37038322 -19.05236092 10.26460883 -6.4375 3.75 C-3 2 -3 2 0 2 C0 1.34 0 0.68 0 0 Z " fill="#ECACB9" transform="translate(672,1559)"/>
<path d="M0 0 C2.93756119 -0.0269501 5.87487555 -0.04681474 8.8125 -0.0625 C9.64587891 -0.07087891 10.47925781 -0.07925781 11.33789062 -0.08789062 C12.14033203 -0.09111328 12.94277344 -0.09433594 13.76953125 -0.09765625 C14.87711792 -0.10551147 14.87711792 -0.10551147 16.00708008 -0.11352539 C18 0 18 0 21 1 C23.44099231 1.18550364 25.86806902 1.32678546 28.3125 1.4375 C42.68382374 2.20135168 57.00208805 3.45033221 71.25 5.5 C72.10182861 5.61843262 72.95365723 5.73686523 73.83129883 5.85888672 C79.75813008 6.75813008 79.75813008 6.75813008 82 9 C64.66895202 7.56012713 47.36978889 5.86053911 30.07055664 4.08129883 C26.66370621 3.73129413 23.25664764 3.38332689 19.84960938 3.03515625 C13.23288605 2.35858566 6.6163626 1.68008861 0 1 C0 0.67 0 0.34 0 0 Z " fill="#EDABB8" transform="translate(657,1025)"/>
<path d="M0 0 C0.33 0 0.66 0 1 0 C1.4014014 11.80541351 0.16836004 23.23853729 -1.25 34.9375 C-1.36193695 35.8835611 -1.4738739 36.82962219 -1.58920288 37.80435181 C-3.26505937 51.96107491 -5.22098025 66.01174977 -8 80 C-8.33 80 -8.66 80 -9 80 C-9.02708567 78.39592672 -9.04643483 76.7917215 -9.0625 75.1875 C-9.07410156 74.29417969 -9.08570313 73.40085937 -9.09765625 72.48046875 C-9 70 -9 70 -8 67 C-7.75155015 65.28040004 -7.54036814 63.5552914 -7.3515625 61.828125 C-7.23474121 60.78245361 -7.11791992 59.73678223 -6.99755859 58.65942383 C-6.87461426 57.53431396 -6.75166992 56.4092041 -6.625 55.25 C-5.63969995 46.4221778 -4.57091344 37.61418554 -3.375 28.8125 C-2.33656817 21.13073339 -1.57551664 13.50859141 -1.2109375 5.765625 C-1 3 -1 3 0 0 Z " fill="#EDAAB7" transform="translate(1022,827)"/>
<path d="M0 0 C0.97582031 0.00902344 1.95164062 0.01804687 2.95703125 0.02734375 C4.06111328 0.04474609 4.06111328 0.04474609 5.1875 0.0625 C5.1875 0.3925 5.1875 0.7225 5.1875 1.0625 C0.39592185 1.81306629 -4.39575839 2.56297815 -9.1875 3.3125 C-9.90723999 3.42510162 -10.62697998 3.53770325 -11.36853027 3.65371704 C-22.28744333 5.36144669 -33.20856386 7.05399446 -44.13427734 8.71777344 C-50.16351301 9.63980948 -56.17750625 10.62450051 -62.18554688 11.67651367 C-65.45619069 12.15707946 -68.51536516 12.21236977 -71.8125 12.0625 C-68.74972419 10.02064946 -67.17483478 9.60577346 -63.62109375 9.02734375 C-62.59306641 8.85783203 -61.56503906 8.68832031 -60.50585938 8.51367188 C-59.43142578 8.34416016 -58.35699219 8.17464844 -57.25 8 C-56.20263672 7.82662109 -55.15527344 7.65324219 -54.07617188 7.47460938 C-48.3123012 6.53963719 -42.57920026 5.77877807 -36.75805664 5.31079102 C-34.735199 5.16151101 -34.735199 5.16151101 -32.8125 4.0625 C-31.20770234 3.78626582 -29.59533475 3.55324613 -27.98046875 3.34375 C-27.01689453 3.21613281 -26.05332031 3.08851563 -25.06054688 2.95703125 C-24.05056641 2.82683594 -23.04058594 2.69664062 -22 2.5625 C-20.01413376 2.30352971 -18.02844957 2.04315886 -16.04296875 1.78125 C-15.16020264 1.66716797 -14.27743652 1.55308594 -13.36791992 1.43554688 C-11.62613457 1.1812765 -9.89135175 0.87492165 -8.16650391 0.52368164 C-5.39866635 -0.01857569 -2.81777844 -0.03394914 0 0 Z " fill="#EDA7B4" transform="translate(676.8125,996.9375)"/>
<path d="M0 0 C2.96695379 1.42953228 5.27796966 2.93820393 7.75 5.125 C8.67039062 5.93324219 8.67039062 5.93324219 9.609375 6.7578125 C10.06828125 7.16773438 10.5271875 7.57765625 11 8 C6.75354935 8 4.61475228 6.18249194 1 4 C0.95101563 4.58007812 0.90203125 5.16015625 0.8515625 5.7578125 C0.40038183 10.47187265 -0.43845314 14.51055278 -2 19 C-2.34403308 21.33177975 -2.67949202 23.66487041 -3 26 C-3.33 26.33 -3.66 26.66 -4 27 C-4.25939253 28.36357347 -4.46620538 29.73726942 -4.6484375 31.11328125 C-4.76703125 31.94923828 -4.885625 32.78519531 -5.0078125 33.64648438 C-5.25087621 35.41128204 -5.48794531 37.17691663 -5.71875 38.94335938 C-5.83992188 39.78318359 -5.96109375 40.62300781 -6.0859375 41.48828125 C-6.1895459 42.25696533 -6.2931543 43.02564941 -6.39990234 43.81762695 C-7.10830738 46.39388105 -8.29396481 47.96863458 -10 50 C-9.47944014 41.2777015 -7.54541914 32.91747232 -5.5625 24.4375 C-5.24617363 23.06588681 -4.93041513 21.69414252 -4.61523438 20.32226562 C-4.01454323 17.71013888 -3.41079349 15.09878943 -2.80517578 12.48779297 C-1.84541887 8.33039842 -0.91631426 4.16715781 0 0 Z " fill="#EDABB7" transform="translate(1084,1136)"/>
<path d="M0 0 C2.87226884 1.38733912 5.03051612 2.76805677 7.375 4.9375 C11.84492687 8.95788963 16.56696112 12.61666673 21.33935547 16.26733398 C25.89388043 19.78776085 25.89388043 19.78776085 27 22 C25.68 21.67 24.36 21.34 23 21 C23 20.34 23 19.68 23 19 C21.35 18.34 19.7 17.68 18 17 C18 16.34 18 15.68 18 15 C17.01 15 16.02 15 15 15 C15.9590625 16.3921875 15.9590625 16.3921875 16.9375 17.8125 C19 21 19 21 20 24 C20.66 24 21.32 24 22 24 C22.66 25.98 23.32 27.96 24 30 C19.67349728 25.91520135 16.13420971 21.4372473 12.5625 16.6875 C11.74168945 15.6056543 11.74168945 15.6056543 10.90429688 14.50195312 C7.25129686 9.68172233 3.62529344 4.84108808 0 0 Z " fill="#EC9EAB" transform="translate(856,855)"/>
<path d="M0 0 C-0.33 0.66 -0.66 1.32 -1 2 C-3.87109375 2.37890625 -3.87109375 2.37890625 -7.4375 2.5625 C-11.8784668 2.66007452 -11.8784668 2.66007452 -16 4 C-17.5175772 4.15974497 -19.03966579 4.27735262 -20.5625 4.375 C-25.61581869 4.78670271 -30.52188913 5.5766585 -35.5 6.5 C-41.26318409 7.56706767 -46.94376121 8.40288535 -52.80078125 8.7890625 C-55.01359179 8.92667712 -55.01359179 8.92667712 -57.10546875 9.6484375 C-59 10 -59 10 -62 8 C-47.5745794 5.49929694 -33.15301834 3.02197403 -18.625 1.1875 C-17.66529297 1.0639917 -16.70558594 0.9404834 -15.71679688 0.81323242 C-10.43440633 0.17175894 -5.32077914 -0.11837799 0 0 Z " fill="#EDAAB7" transform="translate(1194,1027)"/>
<path d="M0 0 C2.29160319 -0.02692484 4.58329546 -0.04636124 6.875 -0.0625 C8.15117188 -0.07410156 9.42734375 -0.08570313 10.7421875 -0.09765625 C14 0 14 0 16 1 C17.82963411 1.20329268 19.66408368 1.36472196 21.5 1.5 C26.77777778 1.88888889 26.77777778 1.88888889 29 3 C32.11269291 3.31432523 35.22617578 3.51089874 38.34765625 3.71875 C41 4 41 4 42 5 C44.22277862 5.24346865 46.44424927 5.38327516 48.67578125 5.5234375 C51.43075714 6.08832331 52.82055807 7.27239709 55 9 C42.78810014 7.56040323 30.64820309 5.77153588 18.5 3.875 C16.69404359 3.59483815 14.88805416 3.31488906 13.08203125 3.03515625 C8.72097111 2.35921338 4.36036274 1.68042654 0 1 C0 0.67 0 0.34 0 0 Z " fill="#EEADB9" transform="translate(815,1043)"/>
<path d="M0 0 C0.33 0 0.66 0 1 0 C1.02911321 3.0833134 1.04683682 6.16659125 1.0625 9.25 C1.07087891 10.12269531 1.07925781 10.99539063 1.08789062 11.89453125 C1.09111328 12.73886719 1.09433594 13.58320312 1.09765625 14.453125 C1.10289307 15.22817383 1.10812988 16.00322266 1.11352539 16.80175781 C0.99993801 19.00120028 0.56690471 20.87859148 0 23 C-0.17862871 25.20592277 -0.31953718 27.41500266 -0.4375 29.625 C-0.97478336 38.45551195 -1.96362704 47.21598451 -3 56 C-3.66 56 -4.32 56 -5 56 C-4.48681562 37.24311102 -2.11453076 18.62814906 0 0 Z " fill="#EEABB8" transform="translate(1018,692)"/>
<path d="M0 0 C5.72089732 -0.39006118 10.5272779 0.79255363 16.046875 2.26953125 C18.61407012 2.90453851 21.06339959 3.33710409 23.6875 3.625 C27 4 27 4 28 5 C29.55587743 5.29643736 31.12235187 5.53780894 32.69140625 5.75390625 C33.63564453 5.88603516 34.57988281 6.01816406 35.55273438 6.15429688 C37.04256836 6.35635742 37.04256836 6.35635742 38.5625 6.5625 C39.55958984 6.70107422 40.55667969 6.83964844 41.58398438 6.98242188 C44.05549716 7.32535906 46.52748545 7.66437454 49 8 C47 10 47 10 45.01269531 10.0402832 C44.20928711 9.94062256 43.40587891 9.84096191 42.578125 9.73828125 C41.68029297 9.62822754 40.78246094 9.51817383 39.85742188 9.40478516 C35.14116925 8.73667623 30.44287049 8.00433833 25.75 7.1875 C24.750896 7.01444336 23.75179199 6.84138672 22.72241211 6.66308594 C14.97018854 5.27328247 7.49537055 3.44216579 0 1 C0 0.67 0 0.34 0 0 Z " fill="#EEABB7" transform="translate(1105,1005)"/>
<path d="M0 0 C0.33 0 0.66 0 1 0 C1.02685938 2.14576637 1.04633088 4.29162645 1.0625 6.4375 C1.07410156 7.63246094 1.08570313 8.82742188 1.09765625 10.05859375 C1 13 1 13 0 14 C-0.47493865 16.83148137 -0.90494657 19.6586995 -1.3125 22.5 C-2.33015156 29.24684341 -3.52122077 35.9146946 -5.0625 42.5625 C-5.22468018 43.28179688 -5.38686035 44.00109375 -5.55395508 44.7421875 C-6.75239086 49.75239086 -6.75239086 49.75239086 -9 52 C-8.28858216 43.95483031 -6.7023432 36.15026072 -5.0625 28.25 C-3.12145619 18.86120413 -1.35678392 9.49246606 0 0 Z " fill="#EEADB9" transform="translate(998,852)"/>
<path d="M0 0 C2.40236271 6.02092154 -1.68942295 13.30572684 -4 19 C-13.20416966 39.10208483 -13.20416966 39.10208483 -21 43 C-20.34 41.35 -19.68 39.7 -19 38 C-18.34 38 -17.68 38 -17 38 C-16.73703125 37.27425781 -16.4740625 36.54851562 -16.203125 35.80078125 C-14.98174022 32.95749266 -13.5202498 30.71927618 -11.75 28.1875 C-6.12122274 19.53868984 -3.21579339 9.73796591 0 0 Z " fill="#EDABB7" transform="translate(714,1501)"/>
<path d="M0 0 C4.88587956 4.10064892 9.50838032 8.34790051 14 12.875 C14.61230469 13.48996338 15.22460938 14.10492676 15.85546875 14.73852539 C20.08538964 19.0129777 24.14420814 23.38333188 28 28 C29.14475117 29.33426255 30.29054816 30.6676287 31.4375 32 C32.283125 32.99 33.12875 33.98 34 35 C33.505 35.99 33.505 35.99 33 37 C32.48050781 36.40832031 31.96101562 35.81664062 31.42578125 35.20703125 C28.45080863 31.83612881 25.49245594 28.49245594 22.3125 25.3125 C19.68357536 22.68357536 17.37941657 19.85529989 15 17 C11.41943359 13.22588946 7.56507912 9.87772769 3.57421875 6.55078125 C3.05472656 6.03902344 2.53523437 5.52726563 2 5 C2 4.34 2 3.68 2 3 C1.34 3 0.68 3 0 3 C0 2.01 0 1.02 0 0 Z " fill="#ECABB7" transform="translate(724,508)"/>
<path d="M0 0 C0.66 0.33 1.32 0.66 2 1 C0.9171875 1.8353125 0.9171875 1.8353125 -0.1875 2.6875 C-2.98591805 4.98842151 -5.46914193 7.40888341 -8 10 C-8.52464844 10.433125 -9.04929687 10.86625 -9.58984375 11.3125 C-16.23843099 17.10174603 -19.3699139 25.14581372 -23 33 C-23.66 33 -24.32 33 -25 33 C-21.14197108 19.15648445 -12.4622036 7.34950469 0 0 Z " fill="#EDA5B4" transform="translate(1073,1053)"/>
<path d="M0 0 C0 4.0744433 -2.09169249 6.11745033 -4.5 9.1875 C-4.92925781 9.74630859 -5.35851562 10.30511719 -5.80078125 10.88085938 C-6.86078055 12.25885847 -7.92956188 13.63009407 -9 15 C-8.34 15.66 -7.68 16.32 -7 17 C-11.88471613 20.86435321 -16.75430616 24.63737574 -22 28 C-20.34815382 24.08276476 -17.69584833 21.10905936 -14.9375 17.9375 C-13.94974809 16.78712138 -12.96278256 15.63606714 -11.9765625 14.484375 C-11.4805957 13.90623047 -10.98462891 13.32808594 -10.47363281 12.73242188 C-6.91273984 8.54618984 -3.46323104 4.26704269 0 0 Z " fill="#ECAAB7" transform="translate(878,1165)"/>
<path d="M0 0 C0.33 0 0.66 0 1 0 C1.33919096 3.66614909 1.67028081 7.3329879 2 11 C2.09539062 12.02996094 2.19078125 13.05992187 2.2890625 14.12109375 C2.79321351 19.77478726 3.109151 25.32414798 3 31 C0.60236815 28.60236815 0.65719414 27.66726502 0.375 24.375 C0.30023437 23.55773437 0.22546875 22.74046875 0.1484375 21.8984375 C0.07496094 20.95871094 0.07496094 20.95871094 0 20 C-0.66 21.32 -1.32 22.64 -2 24 C-1.86076462 20.74968216 -1.71245815 17.49983939 -1.5625 14.25 C-1.52318359 13.32960938 -1.48386719 12.40921875 -1.44335938 11.4609375 C-1.40146484 10.57148437 -1.35957031 9.68203125 -1.31640625 8.765625 C-1.27974854 7.94868164 -1.24309082 7.13173828 -1.20532227 6.29003906 C-1.00865725 4.0965577 -0.59699406 2.11603587 0 0 Z " fill="#E7B0BA" transform="translate(1024,636)"/>
<path d="M0 0 C3.46639957 1.23799985 4.83105081 3.01357223 6.73046875 6.0859375 C8.95701563 9.44288511 11.56129784 12.5073958 14.09765625 15.6328125 C19 21.73305955 19 21.73305955 19 24 C19.99 24.33 20.98 24.66 22 25 C23.39712274 26.95597184 24.73779907 28.95436401 26 31 C25.67 31.66 25.34 32.32 25 33 C19.14534256 26.14093181 13.49394284 19.15127329 8 12 C7.43643799 11.27047119 6.87287598 10.54094238 6.29223633 9.78930664 C5.76267334 9.09571045 5.23311035 8.40211426 4.6875 7.6875 C3.98173828 6.76517578 3.98173828 6.76517578 3.26171875 5.82421875 C1.96730805 3.95273331 0.9671706 2.05694029 0 0 Z " fill="#ECA9B6" transform="translate(773,857)"/>
<path d="M0 0 C0.66 0 1.32 0 2 0 C3.27490234 1.64575195 3.27490234 1.64575195 4.7109375 3.92578125 C7.85653106 8.80460259 11.20378965 13.49932273 14.625 18.1875 C18.18063735 23.06626047 21.69565324 27.94676727 25 33 C24.67 33.66 24.34 34.32 24 35 C19.31981691 28.67657967 14.65284794 22.34356303 10 16 C9.18595703 14.89035889 9.18595703 14.89035889 8.35546875 13.75830078 C6.93942736 11.82222094 5.53063059 9.88114602 4.125 7.9375 C3.70299316 7.36112793 3.28098633 6.78475586 2.84619141 6.19091797 C0 2.23136701 0 2.23136701 0 0 Z " fill="#ECAEB9" transform="translate(1208,1179)"/>
<path d="M0 0 C0.66 0 1.32 0 2 0 C5 3.46153846 5 3.46153846 5 6 C5.66 6 6.32 6 7 6 C8.38938077 7.96147874 9.7260411 9.96166576 11 12 C11.83402344 11.86722656 12.66804687 11.73445312 13.52734375 11.59765625 C20.00968874 10.58038103 26.47193958 9.66387055 33 9 C33.495 9.99 33.495 9.99 34 11 C31.50159546 11.50938345 29.00176612 12.00763114 26.5 12.5 C25.80390625 12.64308594 25.1078125 12.78617188 24.390625 12.93359375 C19.48423983 13.88761309 14.98575192 14.60278558 10 14 C7.68765366 12.01016513 6.24218124 10.51912956 4.5 8.125 C4.05914063 7.56941406 3.61828125 7.01382813 3.1640625 6.44140625 C0 2.36349961 0 2.36349961 0 0 Z " fill="#ECA2AF" transform="translate(853,959)"/>
<path d="M0 0 C1.05030396 -0.0012085 1.05030396 -0.0012085 2.12182617 -0.00244141 C6.92025428 0.04831174 11.56067419 0.52085777 16.3125 1.1875 C16.3125 1.5175 16.3125 1.8475 16.3125 2.1875 C15.40894775 2.21255615 14.50539551 2.2376123 13.57446289 2.26342773 C10.2328572 2.35837317 6.89143748 2.45761621 3.55004883 2.55981445 C2.1018576 2.6032163 0.65361346 2.64488744 -0.79467773 2.68481445 C-2.87239559 2.74239062 -4.94984573 2.80612028 -7.02734375 2.87109375 C-8.27894287 2.90775146 -9.53054199 2.94440918 -10.82006836 2.98217773 C-13.58380504 2.86553906 -13.58380504 2.86553906 -14.6875 4.1875 C-16.20678038 4.25929964 -17.72917482 4.27142007 -19.25 4.25 C-20.07628906 4.24097656 -20.90257812 4.23195313 -21.75390625 4.22265625 C-22.39199219 4.21105469 -23.03007813 4.19945312 -23.6875 4.1875 C-16.3739976 0.20440258 -8.1584443 0.00891926 0 0 Z " fill="#EDAEB9" transform="translate(1426.6875,472.8125)"/>
<path d="M0 0 C2.94956528 1.36944102 5.52468811 2.87830409 8 5 C8 5.66 8 6.32 8 7 C8.680625 7.20625 9.36125 7.4125 10.0625 7.625 C13.37547866 9.17575597 15.6578015 11.12470724 18.3515625 13.5625 C20.14959934 15.19274687 20.14959934 15.19274687 23 17 C23 17.66 23 18.32 23 19 C23.78375 19.268125 24.5675 19.53625 25.375 19.8125 C28 21 28 21 30 24 C25.46322101 22.50473202 22.05119758 19.95784843 18.375 17 C17.46500244 16.27611084 17.46500244 16.27611084 16.53662109 15.53759766 C10.8170383 10.94126364 5.21211202 6.16956417 0 1 C0 0.67 0 0.34 0 0 Z " fill="#ECADB9" transform="translate(1311,1527)"/>
<path d="M0 0 C0.33 0 0.66 0 1 0 C1.19573608 1.43640171 1.38127816 2.87419504 1.5625 4.3125 C1.66691406 5.11300781 1.77132812 5.91351562 1.87890625 6.73828125 C2 9 2 9 1 12 C0.79923749 14.1637737 0.6367686 16.33124078 0.5 18.5 C0.28318695 21.93803558 0.09057732 24.72826805 -1 28 C-1.26682486 31.1256626 -1.44459148 34.250836 -1.62109375 37.3828125 C-1.74613281 38.24648438 -1.87117187 39.11015625 -2 40 C-2.99 40.495 -2.99 40.495 -4 41 C-4.08451346 35.59113844 -3.81532805 30.36943004 -3.125 25 C-3.03621582 24.2788501 -2.94743164 23.5577002 -2.85595703 22.81469727 C-2.57517574 20.54254008 -2.28771267 18.27128879 -2 16 C-1.80684649 14.44666987 -1.61413418 12.89328482 -1.421875 11.33984375 C-0.95300793 7.5592425 -0.47815227 3.77943765 0 0 Z " fill="#EDB0BB" transform="translate(1011,755)"/>
<path d="M0 0 C-0.65226563 0.35320312 -1.30453125 0.70640625 -1.9765625 1.0703125 C-6.0622473 3.67797179 -9.66948593 6.75899953 -13.375 9.875 C-18.45351005 14.13700049 -23.55116645 18.21888331 -29 22 C-29 21.01 -29 20.02 -29 19 C-27.05859375 17.16796875 -27.05859375 17.16796875 -24.4375 15.1875 C-21.25939345 12.75005387 -18.16378306 10.30497169 -15.1875 7.625 C-12.60454849 5.35957444 -10.21873997 4.23069469 -7 3 C-6.67 2.01 -6.34 1.02 -6 0 C-3.50907189 -1.24546405 -2.58919267 -0.7767578 0 0 Z " fill="#EEAEB9" transform="translate(974,1100)"/>
<path d="M0 0 C0.66 0.33 1.32 0.66 2 1 C1.41992188 1.70125 0.83984375 2.4025 0.2421875 3.125 C-3.76369583 7.99023124 -7.706892 12.87081704 -11.44921875 17.94140625 C-14.53479174 22.03736838 -17.77885977 26.01036439 -21 30 C-21.66 29.67 -22.32 29.34 -23 29 C-18.80776415 23.59158652 -14.5966463 18.19797466 -10.375 12.8125 C-9.92020264 12.23097168 -9.46540527 11.64944336 -8.99682617 11.05029297 C-6.06202271 7.31045108 -3.05912797 3.63892659 0 0 Z " fill="#ECA9B6" transform="translate(947,1077)"/>
<path d="M0 0 C-3.34999075 1.78979466 -5.87898222 2.32351424 -9.6875 2.5625 C-13.15595857 2.50754728 -13.15595857 2.50754728 -16 4 C-23.96810124 4.98687492 -31.98134509 5.14462504 -40 5 C-40 4.67 -40 4.34 -40 4 C-35.75090183 3.42275823 -31.5008363 2.85342654 -27.24975586 2.29101562 C-25.80741675 2.09911159 -24.36535002 1.9051475 -22.92358398 1.70898438 C-15.25834838 0.66746883 -7.75673109 -0.27733564 0 0 Z " fill="#EDAEBA" transform="translate(826,1003)"/>
<path d="M0 0 C0 3 0 3 -1.51171875 4.69140625 C-6.18479286 8.71008219 -10.94543466 12.59470827 -15.8125 16.375 C-16.36317139 16.80369385 -16.91384277 17.2323877 -17.48120117 17.67407227 C-20.20967753 19.76089687 -22.85022481 21.61196347 -26 23 C-24.65152474 18.95457421 -21.91062235 17.3501803 -18.625 14.875 C-17.35341815 13.89810896 -16.08259523 12.92022932 -14.8125 11.94140625 C-13.85537109 11.20688232 -13.85537109 11.20688232 -12.87890625 10.45751953 C-8.50896232 7.06763319 -4.2626088 3.52317666 0 0 Z " fill="#EEAEBA" transform="translate(1102,926)"/>
<path d="M0 0 C3.65396407 0.61178756 5.86042559 2.1664456 8.75 4.4375 C9.54921875 5.05496094 10.3484375 5.67242188 11.171875 6.30859375 C12.07679687 7.14583984 12.07679687 7.14583984 13 8 C13 8.66 13 9.32 13 10 C13.66 10.20625 14.32 10.4125 15 10.625 C19.11606263 12.51152871 22.4587703 15.20567979 26 18 C25.67 18.99 25.34 19.98 25 21 C24.56244385 20.64284912 24.1248877 20.28569824 23.67407227 19.91772461 C21.63773795 18.25659606 19.60030225 16.59682745 17.5625 14.9375 C16.83417969 14.34420898 16.10585937 13.75091797 15.35546875 13.13964844 C10.76245963 9.40680695 6.13314791 5.73468611 1.40625 2.171875 C0.9421875 1.78515625 0.478125 1.3984375 0 1 C0 0.67 0 0.34 0 0 Z " fill="#EDADB9" transform="translate(1135,1147)"/>
<path d="M0 0 C0 3.67955095 -0.73759596 4.138162 -3.1875 6.75 C-6.45042333 10.33125731 -9.25667258 14.00970557 -12 18 C-12.33 17.01 -12.66 16.02 -13 15 C-12.67 14.34 -12.34 13.68 -12 13 C-13.65 13.66 -15.3 14.32 -17 15 C-13.41157029 11.30504919 -9.66828129 7.95241783 -5.6875 4.6875 C-5.13771484 4.23310547 -4.58792969 3.77871094 -4.02148438 3.31054688 C-2.68287784 2.20474148 -1.34170769 1.10204061 0 0 Z " fill="#EBAAB5" transform="translate(1190,856)"/>
<path d="M0 0 C0.99 0.33 1.98 0.66 3 1 C0.27131845 3.25058884 -2.45803208 5.50036495 -5.1875 7.75 C-5.95642578 8.38421875 -6.72535156 9.0184375 -7.51757812 9.671875 C-9.0106819 10.90224378 -10.50526376 12.13082148 -12.00146484 13.35742188 C-13.65085419 14.71304019 -15.28976113 16.08140185 -16.92578125 17.453125 C-19 19 -19 19 -21 19 C-19.61122646 15.64379729 -18.08322035 13.92701272 -15 12 C-14.34 12 -13.68 12 -13 12 C-13 11.34 -13 10.68 -13 10 C-11.3203125 8.4921875 -11.3203125 8.4921875 -9.125 6.875 C-8.40570312 6.33617187 -7.68640625 5.79734375 -6.9453125 5.2421875 C-5 4 -5 4 -3 4 C-3 3.34 -3 2.68 -3 2 C-2.01 1.34 -1.02 0.68 0 0 Z " fill="#EEABB7" transform="translate(920,1139)"/>
<path d="M0 0 C12.27722207 0.3771804 23.99422301 2.50378369 36 5 C36 5.33 36 5.66 36 6 C32.7 6 29.4 6 26 6 C26 5.34 26 4.68 26 4 C25.29617188 4.02320313 24.59234375 4.04640625 23.8671875 4.0703125 C15.74136471 4.21882623 8.0095484 3.32702577 0 2 C0 1.34 0 0.68 0 0 Z " fill="#EFB2BD" transform="translate(560,1031)"/>
<path d="M0 0 C4.9930185 0.54455348 8.94688189 2.19212981 13.3125 4.5625 C13.96677979 4.913125 14.62105957 5.26375 15.29516602 5.625 C20.86323496 8.71447772 25.53437045 12.44965661 30 17 C29.67 17.66 29.34 18.32 29 19 C27.2925002 17.71937515 25.62626404 16.38232443 24 15 C24 14.34 24 13.68 24 13 C23.41734375 12.70867187 22.8346875 12.41734375 22.234375 12.1171875 C14.82291667 8.41145833 7.41145833 4.70572917 0 1 C0 0.67 0 0.34 0 0 Z " fill="#ECA0AF" transform="translate(959,1047)"/>
<path d="M0 0 C6.47340812 -0.20881962 12.75818969 0.18224872 19.1875 0.875 C19.94724121 0.95347168 20.70698242 1.03194336 21.48974609 1.11279297 C26.18454697 1.64580479 30.49264574 2.57913866 35 4 C35 4.33 35 4.66 35 5 C23.14833503 4.5259334 11.68016094 3.01863651 0 1 C0 0.67 0 0.34 0 0 Z " fill="#EEAEBA" transform="translate(1156,1015)"/>
<path d="M0 0 C-24.94129221 12.30982886 -24.94129221 12.30982886 -32 10 C-27.59758149 7.95236348 -23.22376696 6.4337797 -18.5625 5.0625 C-14.62088339 3.8936068 -11.0503494 2.64953432 -7.4375 0.6875 C-3.8556156 -1.07087961 -3.48468603 -1.1818957 0 0 Z " fill="#EDACB8" transform="translate(976,994)"/>
<path d="M0 0 C2 0 2 0 3.4375 1.1875 C6.03431765 4.19980847 7.74410027 7.23230081 9 11 C9.66 11 10.32 11 11 11 C12.7265625 12.6796875 12.7265625 12.6796875 14.625 14.875 C15.25664063 15.59429688 15.88828125 16.31359375 16.5390625 17.0546875 C18 19 18 19 18 21 C18.99 21.33 19.98 21.66 21 22 C20.67 22.99 20.34 23.98 20 25 C0 3.73333333 0 3.73333333 0 0 Z " fill="#ECA8B5" transform="translate(1288,1500)"/>
<path d="M0 0 C3.65343121 1.31446202 6.46475787 2.92276226 9.5625 5.25 C15.05368653 9.20067266 20.88809277 12.13307444 27 15 C27 15.66 27 16.32 27 17 C16.98754269 13.95917963 7.78144061 7.9561363 0 1 C0 0.67 0 0.34 0 0 Z " fill="#EDABB8" transform="translate(556,1550)"/>
<path d="M0 0 C3.82423722 1.50237891 5.58863507 3.73298945 8 7 C8.5775 7.721875 9.155 8.44375 9.75 9.1875 C11 11 11 11 11 13 C11.66 13 12.32 13 13 13 C14.44074715 14.782129 15.80510649 16.62660276 17.125 18.5 C17.84945313 19.5209375 18.57390625 20.541875 19.3203125 21.59375 C19.87460938 22.3878125 20.42890625 23.181875 21 24 C20.67 24.66 20.34 25.32 20 26 C14.66469804 19.69980301 9.41951094 13.34839176 4.375 6.8125 C3.93752441 6.24829346 3.50004883 5.68408691 3.04931641 5.1027832 C0 1.12394681 0 1.12394681 0 0 Z " fill="#EBAAB5" transform="translate(1226,1422)"/>
<path d="M0 0 C-0.33 0.66 -0.66 1.32 -1 2 C-5.95 2 -10.9 2 -16 2 C-16 2.66 -16 3.32 -16 4 C-19.63 4 -23.26 4 -27 4 C-27.33 3.34 -27.66 2.68 -28 2 C-25.02141273 1.66062892 -22.04230315 1.32837741 -19.0625 1 C-18.23169922 0.90460937 -17.40089844 0.80921875 -16.54492188 0.7109375 C-10.99415957 0.10618519 -5.583649 -0.09014973 0 0 Z " fill="#E5B0BA" transform="translate(672,1021)"/>
<path d="M0 0 C0.66 0.33 1.32 0.66 2 1 C-4.50450987 5.33633991 -12.05292234 7.71982293 -19.375 10.3125 C-20.35210938 10.65925781 -21.32921875 11.00601563 -22.3359375 11.36328125 C-25.05792143 12.01384339 -26.40894692 11.95169011 -29 11 C-27.91203125 10.62488281 -26.8240625 10.24976563 -25.703125 9.86328125 C-24.21843106 9.34727093 -22.73407945 8.830275 -21.25 8.3125 C-20.48099365 8.04429443 -19.7119873 7.77608887 -18.91967773 7.49975586 C-13.23587599 5.49353418 -7.7211487 3.25834336 -2.22265625 0.78515625 C-1.12244141 0.39650391 -1.12244141 0.39650391 0 0 Z " fill="#EEB2BE" transform="translate(946,974)"/>
<path d="M0 0 C4.17383395 3.92831431 7.89394426 8.16479983 11 13 C11 13.66 11 14.32 11 15 C8.89829344 15.53067341 6.79352402 16.04922857 4.6875 16.5625 C3.51574219 16.85253906 2.34398437 17.14257812 1.13671875 17.44140625 C-2 18 -2 18 -5 17 C3.42857143 13.57142857 3.42857143 13.57142857 8 14 C6.06966971 10.48404125 4.25898204 7.32372755 1.75 4.1875 C0 2 0 2 0 0 Z " fill="#EBAAB6" transform="translate(901,949)"/>
<path d="M0 0 C0.66 0 1.32 0 2 0 C2 0.66 2 1.32 2 2 C2.66 2 3.32 2 4 2 C4 2.66 4 3.32 4 4 C4.66 4 5.32 4 6 4 C7.04644066 5.63790712 8.0398183 7.31008021 9 9 C9.556875 9.721875 10.11375 10.44375 10.6875 11.1875 C12 13 12 13 12 15 C12.66 15 13.32 15 14 15 C16.1875 17.3125 16.1875 17.3125 18 20 C17.67 20.99 17.34 21.98 17 23 C14.91634928 20.43775794 12.83313689 17.87515983 10.75 15.3125 C9.87021484 14.2306543 9.87021484 14.2306543 8.97265625 13.12695312 C7.82979608 11.72084988 6.68847356 10.3134952 5.54882812 8.90478516 C4.23891017 7.29381733 2.91052037 5.69789612 1.578125 4.10546875 C0 2 0 2 0 0 Z " fill="#ECABB8" transform="translate(921,937)"/>
<path d="M0 0 C0.66 0.33 1.32 0.66 2 1 C1.34515625 1.47308594 0.6903125 1.94617188 0.015625 2.43359375 C-7.04565996 7.55003328 -14.03716688 12.75053419 -21 18 C-21.66 17.67 -22.32 17.34 -23 17 C-7.95092956 3.94696682 -7.95092956 3.94696682 0 0 Z " fill="#EEAFB9" transform="translate(582,487)"/>
<path d="M0 0 C1.9896995 0.39013716 3.99019869 0.73202649 6 1 C6 1.33 6 1.66 6 2 C2.54099522 1.8904307 -0.91689109 1.75973152 -4.375 1.625 C-5.35984375 1.5940625 -6.3446875 1.563125 -7.359375 1.53125 C-8.77089844 1.47324219 -8.77089844 1.47324219 -10.2109375 1.4140625 C-11.08024902 1.3826416 -11.94956055 1.3512207 -12.84521484 1.31884766 C-15 1 -15 1 -17 -1 C-5.07692308 -3.38461538 -5.07692308 -3.38461538 0 0 Z " fill="#FDD6E1" transform="translate(846,1024)"/>
<path d="M0 0 C0.66 0.33 1.32 0.66 2 1 C1.27554687 1.9178125 0.55109375 2.835625 -0.1953125 3.78125 C-5.20334507 10.13496957 -10.18716058 16.49616294 -15 23 C-15.33 22.01 -15.66 21.02 -16 20 C-14.85546875 17.95703125 -14.85546875 17.95703125 -13.1875 15.8125 C-12.64480469 15.09707031 -12.10210938 14.38164063 -11.54296875 13.64453125 C-10.77919922 12.83048828 -10.77919922 12.83048828 -10 12 C-9.34 12 -8.68 12 -8 12 C-7.79375 11.319375 -7.5875 10.63875 -7.375 9.9375 C-5.54591134 6.02990149 -2.89720966 3.16142061 0 0 Z " fill="#EDAAB6" transform="translate(1155,899)"/>
<path d="M0 0 C1.9375 0.8125 1.9375 0.8125 4 2 C4.33 2.99 4.66 3.98 5 5 C5.66 5 6.32 5 7 5 C7.33 6.32 7.66 7.64 8 9 C8.66 9 9.32 9 10 9 C10.33 10.32 10.66 11.64 11 13 C11.66 13 12.32 13 13 13 C15.6875 15.8125 15.6875 15.8125 18 19 C17.67 19.99 17.34 20.98 17 22 C0 1.78470825 0 1.78470825 0 0 Z " fill="#ECA8B5" transform="translate(1270,1478)"/>
<path d="M0 0 C0.33 0.99 0.66 1.98 1 3 C-0.51171875 5.6015625 -0.51171875 5.6015625 -2.6875 8.625 C-6.1264228 13.5756034 -8.84257567 18.37934188 -11 24 C-11.66 24 -12.32 24 -13 24 C-11.69813074 18.48120638 -9.66725508 14.42498993 -6.5 9.75 C-6.09652344 9.13898437 -5.69304688 8.52796875 -5.27734375 7.8984375 C-4.19338439 6.25997748 -3.09729227 4.62956091 -2 3 C-1.34 2.01 -0.68 1.02 0 0 Z " fill="#EEACB8" transform="translate(548,516)"/>
<path d="M0 0 C0 4.11988553 -2.16185802 6.16778658 -4.625 9.25 C-5.3063501 10.11854614 -5.3063501 10.11854614 -6.00146484 11.00463867 C-9.22900865 15.09672363 -12.54847413 19.09432599 -16 23 C-16.66 22.67 -17.32 22.34 -18 22 C-17.3709375 21.24976563 -16.741875 20.49953125 -16.09375 19.7265625 C-10.64551705 13.21604168 -5.27131349 6.65540138 0 0 Z " fill="#FEE7EE" transform="translate(1136,926)"/>
<path d="M0 0 C4.02633131 -0.37746856 6.95268432 0.63972933 10.6640625 2.1328125 C15.0100964 3.74622308 19.51612234 4.83781848 24 6 C24 6.66 24 7.32 24 8 C18.02798909 7.46870624 13.05383257 6.15389059 7.5 3.9375 C6.77296875 3.65583984 6.0459375 3.37417969 5.296875 3.08398438 C3.52808745 2.39741552 1.76356959 1.69986318 0 1 C0 0.67 0 0.34 0 0 Z " fill="#EDACB9" transform="translate(1363,1563)"/>
<path d="M0 0 C0.66 0 1.32 0 2 0 C-1.38809921 7.64124502 -7.62056797 15.02645968 -15 19 C-13.56910817 15.69060402 -11.80572265 13.64552547 -9.1875 11.1875 C-6.51355584 8.60090791 -4.21615226 6.07742706 -2.125 3 C-1.42375 2.01 -0.7225 1.02 0 0 Z " fill="#EDABB8" transform="translate(1503,1532)"/>
<path d="M0 0 C0 3.43324947 -0.50537177 4.04087499 -2.51953125 6.6875 C-3.04740234 7.38617187 -3.57527344 8.08484375 -4.11914062 8.8046875 C-4.67794922 9.52914063 -5.23675781 10.25359375 -5.8125 11 C-6.35970703 11.72445313 -6.90691406 12.44890625 -7.47070312 13.1953125 C-9.84375418 16.31335777 -12.17363743 19.27680464 -15 22 C-15.66 21.67 -16.32 21.34 -17 21 C-16.443125 20.32195312 -15.88625 19.64390625 -15.3125 18.9453125 C-10.1632958 12.66537089 -5.05811279 6.35365122 0 0 Z " fill="#EDAEB9" transform="translate(910,1124)"/>
<path d="M0 0 C-0.33 0.66 -0.66 1.32 -1 2 C-2.8125 2.37890625 -2.8125 2.37890625 -5 2.5625 C-7.78932058 2.62665408 -7.78932058 2.62665408 -10 4 C-12.68862664 4.39993686 -15.36352217 4.75134543 -18.0625 5.0625 C-19.20041992 5.19881836 -19.20041992 5.19881836 -20.36132812 5.33789062 C-22.2404301 5.5624374 -24.12016095 5.78170978 -26 6 C-23.11582372 3.11582372 -19.67160569 2.75577645 -15.8125 1.875 C-15.06935547 1.69324219 -14.32621094 1.51148438 -13.56054688 1.32421875 C-8.92443498 0.24340739 -4.75794058 -0.18905724 0 0 Z " fill="#EDA6B3" transform="translate(1128,1037)"/>
<path d="M0 0 C2.85442753 -0.05437005 5.70780076 -0.09384974 8.5625 -0.125 C9.36236328 -0.14175781 10.16222656 -0.15851562 10.98632812 -0.17578125 C16.06500335 -0.21723982 20.18811906 0.35943925 25 2 C25 2.66 25 3.32 25 4 C23.02 4 21.04 4 19 4 C19 3.67 19 3.34 19 3 C12.73 2.34 6.46 1.68 0 1 C0 0.67 0 0.34 0 0 Z " fill="#F9E5EA" transform="translate(1383,1021)"/>
<path d="M0 0 C3.5875213 1.33250791 6.8364623 2.830717 10 5 C10 5.66 10 6.32 10 7 C10.56203125 7.26554688 11.1240625 7.53109375 11.703125 7.8046875 C14.17930222 9.09331034 16.43844882 10.56130361 18.75 12.125 C19.54921875 12.66382813 20.3484375 13.20265625 21.171875 13.7578125 C21.77515625 14.16773438 22.3784375 14.57765625 23 15 C22.67 15.99 22.34 16.98 22 18 C21.33355469 17.443125 20.66710937 16.88625 19.98046875 16.3125 C14.13880095 11.47576247 8.22102559 6.902653 2.01953125 2.53125 C1.35308594 2.0259375 0.68664062 1.520625 0 1 C0 0.67 0 0.34 0 0 Z " fill="#ECA3B0" transform="translate(872,840)"/>
<path d="M0 0 C4.86659722 1.60023506 8.61031003 4.36950594 12.6875 7.375 C13.36361328 7.85710938 14.03972656 8.33921875 14.73632812 8.8359375 C15.70795898 9.5475 15.70795898 9.5475 16.69921875 10.2734375 C17.28533936 10.70060059 17.87145996 11.12776367 18.4753418 11.56787109 C20.22656921 13.21281905 21.04978231 14.80961816 22 17 C16.45457569 13.4750016 11.15227932 9.67994248 5.9375 5.6875 C5.35331299 5.24293457 4.76912598 4.79836914 4.16723633 4.34033203 C2.75810216 3.2523806 1.37613174 2.12940642 0 1 C0 0.67 0 0.34 0 0 Z " fill="#ECAEB8" transform="translate(849,823)"/>
<path d="M0 0 C-1.134375 0.4125 -2.26875 0.825 -3.4375 1.25 C-9.17391721 3.40370824 -14.88927432 5.59284954 -20 9 C-22.6875 9.125 -22.6875 9.125 -25 9 C-18.68680988 4.03343071 -8.209766 -2.73658867 0 0 Z " fill="#EEAFB9" transform="translate(1403,478)"/>
<path d="M0 0 C0.66 0.33 1.32 0.66 2 1 C-2.58121889 5.83891245 -7.32919517 10.44108111 -13 14 C-13.66 14 -14.32 14 -15 14 C-15 14.66 -15 15.32 -15 16 C-16.65 16.33 -18.3 16.66 -20 17 C-16.35638141 13.19231604 -12.52734452 9.96766673 -8.3125 6.8125 C-3.99396538 3.59904829 -3.99396538 3.59904829 0 0 Z " fill="#EDADB9" transform="translate(1153,885)"/>
<path d="M0 0 C1.32 0 2.64 0 4 0 C4 0.66 4 1.32 4 2 C4.8971875 2.433125 4.8971875 2.433125 5.8125 2.875 C8 4 8 4 11 6 C11 6.66 11 7.32 11 8 C13.475 8.99 13.475 8.99 16 10 C16 10.66 16 11.32 16 12 C17.32 12.66 18.64 13.32 20 14 C20 14.99 20 15.98 20 17 C19.14277344 16.26394531 18.28554687 15.52789063 17.40234375 14.76953125 C10.23870127 8.57705138 10.23870127 8.57705138 2.6875 2.875 C1.800625 2.25625 0.91375 1.6375 0 1 C0 0.67 0 0.34 0 0 Z " fill="#EDACB9" transform="translate(1092,1113)"/>
<path d="M0 0 C3.98157531 -0.37327269 6.92276181 0.59221635 10.59765625 2.06640625 C15.32847237 3.90488601 20.17887017 5.41706237 25 7 C18.26569459 9.6068279 8.93159227 4.94357535 2.625 2.25 C1.75875 1.8375 0.8925 1.425 0 1 C0 0.67 0 0.34 0 0 Z " fill="#EDA5B3" transform="translate(1080,997)"/>
<path d="M0 0 C6.67334778 0.34995856 12.00696894 1.00348447 18 4 C19.6642135 4.67276716 21.32986582 5.34206835 23 6 C23 6.66 23 7.32 23 8 C15.3194457 5.71143755 7.65750046 3.36446331 0 1 C0 0.67 0 0.34 0 0 Z " fill="#EFB3BE" transform="translate(917,1062)"/>
<path d="M0 0 C4.17060946 3.98490515 7.74637494 8.28443112 11.3125 12.8125 C12.13717773 13.85180664 12.13717773 13.85180664 12.97851562 14.91210938 C14.32182363 16.60584555 15.66130687 18.30261397 17 20 C16.67 20.66 16.34 21.32 16 22 C15.401875 21.236875 14.80375 20.47375 14.1875 19.6875 C12.17589351 17.12275348 12.17589351 17.12275348 10.4375 15.4375 C8.74183137 13.74183137 7.34466188 11.98497706 6 10 C6 9.34 6 8.68 6 8 C5.01 7.67 4.02 7.34 3 7 C0 2.66666667 0 2.66666667 0 0 Z " fill="#ECADB9" transform="translate(954,795)"/>
<path d="M0 0 C0 4.27636499 -2.05857983 5.77742441 -4.84375 8.859375 C-8.28330084 12.27400156 -12.08277705 15.15757065 -16 18 C-16.66 17.67 -17.32 17.34 -18 17 C-17.20335937 16.35933594 -16.40671875 15.71867187 -15.5859375 15.05859375 C-9.84493482 10.39018546 -4.58468656 5.8582106 0 0 Z " fill="#FEE6EC" transform="translate(697,1540)"/>
<path d="M0 0 C3.5875213 1.33250791 6.8364623 2.830717 10 5 C10 5.66 10 6.32 10 7 C10.53625 7.2475 11.0725 7.495 11.625 7.75 C14.5823982 9.30652537 17.29724051 11.03435673 20 13 C20 13.66 20 14.32 20 15 C17.12952515 13.65052579 14.64736525 12.11392802 12.109375 10.21484375 C11.40039062 9.68439453 10.69140625 9.15394531 9.9609375 8.60742188 C9.23132813 8.05634766 8.50171875 7.50527344 7.75 6.9375 C7.00492188 6.38255859 6.25984375 5.82761719 5.4921875 5.25585938 C4.78835938 4.72669922 4.08453125 4.19753906 3.359375 3.65234375 C2.71452148 3.16757568 2.06966797 2.68280762 1.40527344 2.18334961 C0.9415332 1.79284424 0.47779297 1.40233887 0 1 C0 0.67 0 0.34 0 0 Z " fill="#ECAEB9" transform="translate(896,858)"/>
<path d="M0 0 C2.475 0.99 2.475 0.99 5 2 C5 2.66 5 3.32 5 4 C5.71542969 4.23460937 6.43085937 4.46921875 7.16796875 4.7109375 C10.49149637 6.22371559 12.64795001 8.13808667 15.3125 10.625 C16.19550781 11.44226562 17.07851562 12.25953125 17.98828125 13.1015625 C18.98408203 14.04128906 18.98408203 14.04128906 20 15 C16.46580111 15 15.89794596 14.40569715 13.2421875 12.2265625 C12.53449219 11.6490625 11.82679687 11.0715625 11.09765625 10.4765625 C10.36417969 9.86554688 9.63070313 9.25453125 8.875 8.625 C8.13378906 8.02171875 7.39257812 7.4184375 6.62890625 6.796875 C1.14112238 2.28224476 1.14112238 2.28224476 0 0 Z " fill="#EBA5B2" transform="translate(1115,1131)"/>
<path d="M0 0 C4.99620031 1.6654001 6.4420334 4.59871891 8.94921875 9.1484375 C10.49195811 11.86687043 12.23772703 14.41952886 14 17 C13.67 17.66 13.34 18.32 13 19 C8.24505598 12.92133531 4.07127643 6.55258692 0 0 Z " fill="#ECA3B0" transform="translate(1241,1226)"/>
<path d="M0 0 C6.67491831 -0.45510807 12.59374557 1.2327574 19 3 C18.67 3.66 18.34 4.32 18 5 C11.80759538 4.31195504 5.98044406 2.71951285 0 1 C0 0.67 0 0.34 0 0 Z " fill="#F0B3BE" transform="translate(1105,1005)"/>
<path d="M0 0 C-2.76543196 1.51012131 -5.53816807 3.00630148 -8.3125 4.5 C-9.49102539 5.14388672 -9.49102539 5.14388672 -10.69335938 5.80078125 C-11.45068359 6.20683594 -12.20800781 6.61289063 -12.98828125 7.03125 C-13.68477783 7.40830078 -14.38127441 7.78535156 -15.09887695 8.17382812 C-17 9 -17 9 -20 9 C-20 8.34 -20 7.68 -20 7 C-18.845 6.608125 -17.69 6.21625 -16.5 5.8125 C-12.5277095 4.35458487 -9.28511408 2.35375971 -5.859375 -0.109375 C-3.48541157 -1.24648353 -2.45844071 -0.72516992 0 0 Z " fill="#ECA3B3" transform="translate(1480,1558)"/>
<path d="M0 0 C3.0381839 1.32564953 4.78945198 2.62904425 6.796875 5.2578125 C7.28027344 5.88300781 7.76367188 6.50820312 8.26171875 7.15234375 C8.75285156 7.80332031 9.24398438 8.45429687 9.75 9.125 C10.50990234 10.11306641 10.50990234 10.11306641 11.28515625 11.12109375 C12.53030858 12.74214112 13.76608569 14.37038213 15 16 C14.67 16.66 14.34 17.32 14 18 C0 2.38297872 0 2.38297872 0 0 Z " fill="#ECAEBB" transform="translate(1074,1229)"/>
<path d="M0 0 C0.33 0 0.66 0 1 0 C0.96519531 1.09699219 0.93039062 2.19398437 0.89453125 3.32421875 C0.86638135 4.77863045 0.83908248 6.2330588 0.8125 7.6875 C0.78736328 8.40873047 0.76222656 9.12996094 0.73632812 9.87304688 C0.67221496 14.55330766 1.39797325 17.15755502 4 21 C3.67 21.66 3.34 22.32 3 23 C-1.85669879 18.32981038 -1.85669879 18.32981038 -2.22509766 14.91113281 C-2.04423304 12.61207501 -1.72213013 10.39431247 -1.3125 8.125 C-1.19455078 7.34125 -1.07660156 6.5575 -0.95507812 5.75 C-0.66228269 3.82926196 -0.33461214 1.91389616 0 0 Z " fill="#ECABB8" transform="translate(1070,1205)"/>
<path d="M0 0 C0 0.99 0 1.98 0 3 C-2.01171875 4.90234375 -2.01171875 4.90234375 -4.6875 6.9375 C-5.55761719 7.60652344 -6.42773438 8.27554688 -7.32421875 8.96484375 C-8.20722656 9.63644531 -9.09023437 10.30804687 -10 11 C-11.67003231 12.32911537 -13.3377254 13.66119505 -15 15 C-15.66 14.67 -16.32 14.34 -17 14 C-14.73089288 12.03963533 -12.45980842 10.08164784 -10.1875 8.125 C-9.22360352 7.29162109 -9.22360352 7.29162109 -8.24023438 6.44140625 C-7.61826172 5.90644531 -6.99628906 5.37148438 -6.35546875 4.8203125 C-5.78465576 4.32805176 -5.21384277 3.83579102 -4.62573242 3.32861328 C-3 2 -3 2 0 0 Z " fill="#ECA9B6" transform="translate(1132,902)"/>
<path d="M0 0 C0.33 0 0.66 0 1 0 C0.48517081 5.852795 -0.45357192 11.3297637 -2 17 C-3.32 16.34 -4.64 15.68 -6 15 C-5.34 14.34 -4.68 13.68 -4 13 C-3.41298001 10.99739114 -2.90072862 8.97231055 -2.4375 6.9375 C-1.09722222 1.09722222 -1.09722222 1.09722222 0 0 Z " fill="#EBABB7" transform="translate(966,894)"/>
<path d="M0 0 C0.66 0.33 1.32 0.66 2 1 C0.71034824 2.37562854 -0.62689293 3.70766393 -2 5 C-2.66 5 -3.32 5 -4 5 C-4.2475 5.5775 -4.495 6.155 -4.75 6.75 C-6.16683317 9.3002997 -7.87627537 11.01785701 -10 13 C-10.99 12.67 -11.98 12.34 -13 12 C-4.738041 3.55353075 -4.738041 3.55353075 0 0 Z " fill="#EEA4B2" transform="translate(1369,492)"/>
<path d="M0 0 C0 3.37731856 -0.45016914 3.9327964 -2.4375 6.5 C-4.19743883 8.78641626 -5.06651207 10.19953621 -6 13 C-5.34 13 -4.68 13 -4 13 C-4 13.66 -4 14.32 -4 15 C-5.32 14.67 -6.64 14.34 -8 14 C-8 9.2047363 -7.01007087 8.32445916 -4 4.75 C-3.2575 3.85796875 -2.515 2.9659375 -1.75 2.046875 C-1.1725 1.37140625 -0.595 0.6959375 0 0 Z " fill="#FEE5ED" transform="translate(1109,960)"/>
<path d="M0 0 C0.33 0 0.66 0 1 0 C1.27771418 4.67948398 0.54837397 7.67583336 -1.5 11.875 C-1.9640625 12.84179688 -2.428125 13.80859375 -2.90625 14.8046875 C-3.2671875 15.52914062 -3.628125 16.25359375 -4 17 C-4.66 17 -5.32 17 -6 17 C-4.13236819 11.27789404 -2.14710968 5.62338249 0 0 Z " fill="#EFAFBC" transform="translate(982,925)"/>
<path d="M0 0 C0.33 0 0.66 0 1 0 C1.47156103 7.38778946 -0.61267166 13.47571106 -4 20 C-5.28961193 17.42077613 -4.79211692 16.59708789 -4.00390625 13.8671875 C-3.77509766 13.06152344 -3.54628906 12.25585938 -3.31054688 11.42578125 C-3.06369141 10.58402344 -2.81683594 9.74226562 -2.5625 8.875 C-2.31951172 8.02550781 -2.07652344 7.17601562 -1.82617188 6.30078125 C-1.2238569 4.19858388 -0.61489475 2.09854569 0 0 Z " fill="#EEA5B3" transform="translate(988,904)"/>
<path d="M0 0 C3.53191322 3.43153914 6.7137505 6.97375062 9.8125 10.8125 C10.60269531 11.78832031 11.39289062 12.76414062 12.20703125 13.76953125 C13.09455078 14.87361328 13.09455078 14.87361328 14 16 C13.67 16.66 13.34 17.32 13 18 C11.32731078 16.04653795 9.66178419 14.08770186 8 12.125 C7.28457031 11.29162109 7.28457031 11.29162109 6.5546875 10.44140625 C3 6.2265625 3 6.2265625 3 4 C2.01 3.67 1.02 3.34 0 3 C0 2.01 0 1.02 0 0 Z " fill="#ECA9B5" transform="translate(857,671)"/>
<path d="M0 0 C0.33 0.66 0.66 1.32 1 2 C0.37351562 2.83144531 -0.25296875 3.66289063 -0.8984375 4.51953125 C-1.72400098 5.61715542 -2.54951946 6.71481345 -3.375 7.8125 C-3.7875 8.35970703 -4.2 8.90691406 -4.625 9.47070312 C-6.48407032 11.94446605 -8.28289972 14.42434959 -10 17 C-10.66 17 -11.32 17 -12 17 C-10.25477062 12.94785821 -7.5771843 9.69396039 -4.875 6.25 C-4.40707031 5.64800781 -3.93914063 5.04601563 -3.45703125 4.42578125 C-2.30774993 2.94813384 -1.15428765 1.47373995 0 0 Z " fill="#ECA5B3" transform="translate(923,1107)"/>
<path d="M0 0 C4.09457279 1.3648576 5.71667285 4.21754285 8.1875 7.5625 C8.65091797 8.17802734 9.11433594 8.79355469 9.59179688 9.42773438 C10.73423225 10.94705565 11.86796157 12.47291627 13 14 C12.67 14.66 12.34 15.32 12 16 C10.1819528 13.90041007 8.37049966 11.79571273 6.5625 9.6875 C6.04623047 9.09259766 5.52996094 8.49769531 4.99804688 7.88476562 C4.50498047 7.30791016 4.01191406 6.73105469 3.50390625 6.13671875 C3.04830322 5.60780029 2.5927002 5.07888184 2.12329102 4.53393555 C1 3 1 3 0 0 Z " fill="#ECACB7" transform="translate(837,939)"/>
<path d="M0 0 C2.76691737 2.5200232 4.67255441 5.35719179 6.6875 8.5 C7.31011719 9.4590625 7.93273438 10.418125 8.57421875 11.40625 C10 14 10 14 10 17 C0 6.33333333 0 6.33333333 0 0 Z " fill="#ECABB7" transform="translate(1051,968)"/>
<path d="M0 0 C1.89575251 -0.02721176 3.79161979 -0.04649136 5.6875 -0.0625 C6.74324219 -0.07410156 7.79898437 -0.08570313 8.88671875 -0.09765625 C11.72410262 -0.00865425 14.2438919 0.35060162 17 1 C13.09971775 3.60018816 9.52565431 3.15085514 5 3 C5 2.67 5 2.34 5 2 C3.35 1.67 1.7 1.34 0 1 C0 0.67 0 0.34 0 0 Z " fill="#FEE4ED" transform="translate(1199,1022)"/>
<path d="M0 0 C3.34249629 0.59687434 5.46436342 1.73603877 8 4 C8 4.66 8 5.32 8 6 C8.598125 6.2475 9.19625 6.495 9.8125 6.75 C12.28647521 8.16370012 13.43370255 9.65055383 15 12 C11.26427172 10.37228982 8.38341608 8.01966695 5.25 5.4375 C4.26515625 4.63183594 3.2803125 3.82617188 2.265625 2.99609375 C1.51796875 2.33738281 0.7703125 1.67867187 0 1 C0 0.67 0 0.34 0 0 Z " fill="#EDA4B0" transform="translate(935,888)"/>
<path d="M0 0 C3.23861303 1.44424635 5.61969163 3.25772247 8.25 5.625 C8.95640625 6.25664063 9.6628125 6.88828125 10.390625 7.5390625 C10.92171875 8.02117188 11.4528125 8.50328125 12 9 C11.01 9.495 11.01 9.495 10 10 C9.67 10.66 9.34 11.32 9 12 C7.49707257 10.18992669 5.99772829 8.37687764 4.5 6.5625 C3.6646875 5.55316406 2.829375 4.54382813 1.96875 3.50390625 C0 1 0 1 0 0 Z " fill="#E0AAB5" transform="translate(856,855)"/>
<path d="M0 0 C11.70615034 7.11389522 11.70615034 7.11389522 16 12 C11.8545826 11.42648352 8.98001644 9.0313762 5.75 6.5625 C5.19570312 6.15451172 4.64140625 5.74652344 4.0703125 5.32617188 C2.67189091 4.27046691 1.33049348 3.14012413 0 2 C0 1.34 0 0.68 0 0 Z " fill="#ECACB9" transform="translate(1243,1255)"/>
<path d="M0 0 C0.33 0 0.66 0 1 0 C0.6083965 5.95507399 -0.37124595 10.62819824 -3 16 C-4.49828872 12.11764181 -3.43110582 9.56550712 -2.0625 5.75 C-1.68222656 4.67234375 -1.30195312 3.5946875 -0.91015625 2.484375 C-0.45962891 1.25460937 -0.45962891 1.25460937 0 0 Z " fill="#EEB1BC" transform="translate(1047,1087)"/>
<path d="M0 0 C0.33 0.66 0.66 1.32 1 2 C-2.27530896 6.63720719 -5.30435607 10.68542782 -10 14 C-10.66 13.67 -11.32 13.34 -12 13 C-11.319375 12.525625 -10.63875 12.05125 -9.9375 11.5625 C-6.02011774 8.14520909 -3.08656239 4.16285648 0 0 Z " fill="#FEE6EC" transform="translate(993,977)"/>
<path d="M0 0 C1.32 0.33 2.64 0.66 4 1 C4 1.66 4 2.32 4 3 C6.475 3.99 6.475 3.99 9 5 C9 5.66 9 6.32 9 7 C10.32 7.66 11.64 8.32 13 9 C13 9.99 13 10.98 13 12 C10.83035229 10.19096681 8.66421535 8.37801121 6.5 6.5625 C5.87996094 6.04623047 5.25992187 5.52996094 4.62109375 4.99804688 C3.06197284 3.68735732 1.52871719 2.34602708 0 1 C0 0.67 0 0.34 0 0 Z " fill="#EBA3AF" transform="translate(1078,1101)"/>
<path d="M0 0 C0 4.61590466 -1.44028719 6.4136342 -4.625 9.75 C-5.40875 10.4925 -6.1925 11.235 -7 12 C-7.66 11.67 -8.32 11.34 -9 11 C-6.03 7.37 -3.06 3.74 0 0 Z " fill="#EEA5B3" transform="translate(892,1147)"/>
<path d="M0 0 C3.91939465 3.80411834 7.49102731 7.81576108 11 12 C10.67 12.66 10.34 13.32 10 14 C9.1028125 12.8553125 9.1028125 12.8553125 8.1875 11.6875 C6.15995888 9.08664741 6.15995888 9.08664741 4.25 7.3125 C3 6 3 6 3 4 C2.01 3.67 1.02 3.34 0 3 C0 2.01 0 1.02 0 0 Z " fill="#ECA9B6" transform="translate(810,611)"/>
<path d="M0 0 C2.69082872 0.17635452 5.32851446 0.61835921 8 1 C8 1.33 8 1.66 8 2 C5.77149723 2.33774332 3.54216533 2.6700187 1.3125 3 C-0.54955078 3.2784375 -0.54955078 3.2784375 -2.44921875 3.5625 C-5.35886371 3.92100411 -8.07700022 4.08942256 -11 4 C-10.67 3.34 -10.34 2.68 -10 2 C-7.96875 1.62109375 -7.96875 1.62109375 -5.5 1.4375 C-2.45018475 1.4207737 -2.45018475 1.4207737 0 0 Z " fill="#EBA3B1" transform="translate(1215,1043)"/>
<path d="M0 0 C0.33 0.99 0.66 1.98 1 3 C-1.64 5.64 -4.28 8.28 -7 11 C-7.66 10.67 -8.32 10.34 -9 10 C-6.03 6.7 -3.06 3.4 0 0 Z " fill="#EFADB9" transform="translate(558,505)"/>
<path d="M0 0 C3.65882521 3.3621637 6.14420341 6.36050852 8 11 C7.67 11.66 7.34 12.32 7 13 C4 9.375 4 9.375 4 6 C3.34 6 2.68 6 2 6 C0 3 0 3 0 0 Z " fill="#ECACB7" transform="translate(989,1066)"/>
<path d="M0 0 C0.66 0.33 1.32 0.66 2 1 C-0.64 4.3 -3.28 7.6 -6 11 C-6.33 10.01 -6.66 9.02 -7 8 C-6.34 7.01 -5.68 6.02 -5 5 C-4.34 5 -3.68 5 -3 5 C-2.690625 4.360625 -2.38125 3.72125 -2.0625 3.0625 C-1 1 -1 1 0 0 Z " fill="#EDABB7" transform="translate(1114,951)"/>
<path d="M0 0 C0.93045933 2.55144824 1.08564091 3.74006478 0.22265625 6.359375 C-0.16019531 7.14828125 -0.54304688 7.9371875 -0.9375 8.75 C-1.50791016 9.94882813 -1.50791016 9.94882813 -2.08984375 11.171875 C-2.39019531 11.77515625 -2.69054688 12.3784375 -3 13 C-3.66 13 -4.32 13 -5 13 C-4.54554036 11.58208592 -4.08625056 10.16571954 -3.625 8.75 C-3.24214844 7.56664062 -3.24214844 7.56664062 -2.8515625 6.359375 C-2.04826333 4.13372042 -1.10288338 2.09068328 0 0 Z " fill="#EEB1BC" transform="translate(1053,1073)"/>
<path d="M0 0 C0.33 1.32 0.66 2.64 1 4 C-1.64 5.98 -4.28 7.96 -7 10 C-4.98127747 5.96255494 -2.91899872 3.37989325 0 0 Z " fill="#E2BEC5" transform="translate(863,1183)"/>
<path d="M0 0 C0 0.66 0 1.32 0 2 C-1.65 2.33 -3.3 2.66 -5 3 C-5.33 3.99 -5.66 4.98 -6 6 C-6.99 4.68 -7.98 3.36 -9 2 C-2.25 0 -2.25 0 0 0 Z " fill="#EAB1BB" transform="translate(1144,1082)"/>
<path d="M0 0 C1.2989839 0.90626784 2.58893167 1.82549537 3.875 2.75 C4.59429688 3.26046875 5.31359375 3.7709375 6.0546875 4.296875 C8.08570565 6.07503547 8.97855012 7.52701607 10 10 C7.96166576 8.7260411 5.96147874 7.38938077 4 6 C4 5.34 4 4.68 4 4 C2.68 3.34 1.36 2.68 0 2 C0 1.34 0 0.68 0 0 Z " fill="#EBAFBA" transform="translate(979,1056)"/>
<path d="M0 0 C2.66666667 2.66666667 5.33333333 5.33333333 8 8 C7.67 8.66 7.34 9.32 7 10 C5.82438854 8.90536178 4.6597511 7.79892814 3.5 6.6875 C2.52546875 5.76517578 2.52546875 5.76517578 1.53125 4.82421875 C0 3 0 3 0 0 Z " fill="#EDAEB9" transform="translate(1303,1227)"/>
<path d="M0 0 C-5.04414952 3.36276635 -8.03201996 3.03291962 -14 2 C-14 1.67 -14 1.34 -14 1 C-9.23692563 0.04738513 -4.8333472 -0.08333357 0 0 Z " fill="#EFB5BF" transform="translate(1170,1030)"/>
<path d="M0 0 C0 4.38968456 -2.12805101 5.76905739 -5 9 C-5.99 8.34 -6.98 7.68 -8 7 C-5.36 4.69 -2.72 2.38 0 0 Z " fill="#E1B8C0" transform="translate(1190,856)"/>
<path d="M0 0 C3.96 0 7.92 0 12 0 C12 0.33 12 0.66 12 1 C11.07767578 1.07347656 11.07767578 1.07347656 10.13671875 1.1484375 C9.32847656 1.22320313 8.52023437 1.29796875 7.6875 1.375 C6.48673828 1.47941406 6.48673828 1.47941406 5.26171875 1.5859375 C2.72775559 1.89564426 2.72775559 1.89564426 0 4 C0 2.68 0 1.36 0 0 Z " fill="#EF9DAD" transform="translate(1331,1054)"/>
<path d="M0 0 C3.00765886 2.84936103 5.27845212 5.23511958 7 9 C5.82460004 8.07347299 4.65989423 7.13336613 3.5 6.1875 C2.52546875 5.40439453 2.52546875 5.40439453 1.53125 4.60546875 C0 3 0 3 0 0 Z " fill="#EDA5B4" transform="translate(947,786)"/>
</svg>
